<svg width="48" height="48" viewBox="0 0 48 48" fill="none" xmlns="http://www.w3.org/2000/svg"><path d="M22.8053 1.41022C23.4812 0.790538 24.5188 0.790538 25.1947 1.41022L25.6297 1.80902C26.3217 2.44345 27.3367 2.57708 28.1693 2.14337L28.6927 1.87074C29.506 1.44712 30.5081 1.71565 31.0006 2.48915L31.3176 2.98695C31.8218 3.77886 32.7676 4.17064 33.6841 3.96721L34.2603 3.83934C35.1555 3.64064 36.054 4.1594 36.3295 5.03401L36.5068 5.59689C36.7889 6.49231 37.6011 7.11554 38.539 7.15625L39.1286 7.18185C40.0447 7.22161 40.7784 7.95525 40.8182 8.87138L40.8437 9.46097C40.8845 10.3989 41.5077 11.2111 42.4031 11.4932L42.966 11.6705C43.8406 11.946 44.3594 12.8445 44.1607 13.7397L44.0328 14.3159C43.8294 15.2324 44.2211 16.1782 45.013 16.6824L45.5108 16.9994C46.2844 17.4919 46.5529 18.494 46.1293 19.3073L45.8566 19.8307C45.4229 20.6633 45.5565 21.6783 46.191 22.3703L46.5898 22.8053C47.2095 23.4812 47.2095 24.5188 46.5898 25.1947L46.191 25.6297C45.5566 26.3217 45.4229 27.3367 45.8566 28.1693L46.1293 28.6927C46.5529 29.506 46.2844 30.5081 45.5108 31.0006L45.013 31.3176C44.2211 31.8218 43.8294 32.7676 44.0328 33.6841L44.1607 34.2603C44.3594 35.1555 43.8406 36.054 42.966 36.3295L42.4031 36.5068C41.5077 36.7889 40.8845 37.6011 40.8437 38.539L40.8182 39.1286C40.7784 40.0447 40.0447 40.7784 39.1286 40.8182L38.539 40.8437C37.6011 40.8845 36.7889 41.5077 36.5068 42.4031L36.3295 42.966C36.054 43.8406 35.1555 44.3594 34.2603 44.1607L33.6842 44.0328C32.7676 43.8294 31.8218 44.2211 31.3176 45.013L31.0006 45.5108C30.5081 46.2844 29.506 46.5529 28.6927 46.1293L28.1693 45.8566C27.3367 45.4229 26.3217 45.5565 25.6297 46.191L25.1947 46.5898C24.5188 47.2095 23.4812 47.2095 22.8053 46.5898L22.3703 46.191C21.6783 45.5566 20.6633 45.4229 19.8307 45.8566L19.3073 46.1293C18.494 46.5529 17.4919 46.2844 16.9994 45.5108L16.6824 45.013C16.1782 44.2211 15.2324 43.8294 14.3159 44.0328L13.7397 44.1607C12.8445 44.3594 11.946 43.8406 11.6705 42.966L11.4932 42.4031C11.2111 41.5077 10.3989 40.8845 9.46097 40.8437L8.87138 40.8182C7.95525 40.7784 7.22161 40.0447 7.18185 39.1286L7.15625 38.539C7.11554 37.6011 6.49231 36.7889 5.59689 36.5068L5.03401 36.3295C4.1594 36.054 3.64064 35.1555 3.83934 34.2603L3.96721 33.6841C4.17064 32.7676 3.77886 31.8218 2.98695 31.3176L2.48915 31.0006C1.71565 30.5081 1.44712 29.506 1.87074 28.6927L2.14337 28.1693C2.57708 27.3367 2.44345 26.3217 1.80902 25.6297L1.41022 25.1947C0.790538 24.5188 0.790538 23.4812 1.41022 22.8053L1.80902 22.3703C2.44345 21.6783 2.57708 20.6633 2.14337 19.8307L1.87074 19.3073C1.44712 18.494 1.71565 17.4919 2.48915 16.9994L2.98695 16.6824C3.77886 16.1782 4.17064 15.2324 3.96721 14.3159L3.83934 13.7397C3.64064 12.8445 4.1594 11.946 5.03401 11.6705L5.59689 11.4932C6.49232 11.2111 7.11554 10.3989 7.15625 9.46097L7.18185 8.87138C7.22161 7.95525 7.95525 7.22161 8.87138 7.18185L9.46097 7.15625C10.3989 7.11554 11.2111 6.49231 11.4932 5.59689L11.6705 5.03401C11.946 4.1594 12.8445 3.64064 13.7397 3.83934L14.3159 3.96721C15.2324 4.17064 16.1782 3.77886 16.6824 2.98695L16.9994 2.48915C17.4919 1.71565 18.494 1.44712 19.3073 1.87074L19.8307 2.14337C20.6633 2.57708 21.6783 2.44345 22.3703 1.80902L22.8053 1.41022Z" fill="#0AB33A" stroke="#0AB33A" stroke-width="0.464286"/><path d="M23.3359 15.75C22.8779 15.75 22.4488 15.9741 22.1871 16.3499L17.9552 22.427C17.1605 23.5682 16.8063 24.9587 16.9582 26.341L17.2837 29.3024C17.4227 30.5679 18.4162 31.5703 19.6804 31.7207L21.7975 31.9725C23.4141 32.1648 25.0533 31.9981 26.5981 31.4843C27.6795 31.1246 28.5456 30.3039 28.9629 29.2435L30.6715 24.9014C30.7541 24.6914 30.8112 24.4722 30.8416 24.2485C31.1059 22.3014 29.3465 20.6882 27.4295 21.1202L23.5316 21.9985L24.6915 17.4993C24.9199 16.6133 24.2508 15.75 23.3359 15.75Z" fill="#F3F2F7"/></svg>