<svg width="90" height="61" viewBox="0 0 90 61" fill="none" xmlns="http://www.w3.org/2000/svg">
<path fill-rule="evenodd" clip-rule="evenodd" d="M63.8938 56.2401C56.2516 61.3939 45.7494 61.0042 36.8748 58.6761C25.889 55.7941 25.5903 48.9587 9.7773 45.8625C9.05473 45.7211 8.62109 45.4757 8.62109 45.334C10.7137 45.4779 16.6376 45.7847 23.5711 46.8641C31.2244 47.8053 40.0099 52.5453 44.0905 54.134C48.5782 55.8813 51.2393 56.3304 55.4201 56.6434C59.3997 56.9415 61.3708 56.7871 63.8938 56.2401Z" fill="url(#paint0_linear_1827_6122)"/>
<path fill-rule="evenodd" clip-rule="evenodd" d="M8.87695 44.8185C9.80304 43.8185 22.7689 42.8125 29.7147 42.8125C39.1081 42.8125 48.7766 45.3348 58.1701 45.3348C65.1388 45.3348 73.6671 44.4519 78.9951 43.6518C75.3036 50.903 66.4812 55.003 59.1867 55.0066C43.936 55.0144 39.8004 48.4095 26.2016 46.2379C17.5631 44.8584 8.87695 44.8185 8.87695 44.8185Z" fill="url(#paint1_linear_1827_6122)"/>
<path fill-rule="evenodd" clip-rule="evenodd" d="M58.279 0.0908069C68.2987 0.930807 76.3545 7.53177 79.8058 16.5861C81.0251 19.7853 80.6488 19.4701 78.7204 16.5267C74.98 10.8174 68.4084 7.16953 61.3333 6.57657C54.6168 6.01353 49.7341 8.24341 46.8702 12.0143C44.3252 15.3652 38.0513 16.0162 31.1504 15.4375L31.1577 15.4233C36.1283 5.44669 47.1895 -0.838873 58.279 0.0908069Z" fill="url(#paint2_linear_1827_6122)"/>
<path fill-rule="evenodd" clip-rule="evenodd" d="M21.5785 23.994C21.4729 24.0115 21.3747 24.017 21.2839 24.0105C21.1932 24.0039 21.1035 23.9765 21.0147 23.9283C20.9261 23.8803 20.8343 23.8081 20.7393 23.7118C20.6442 23.6155 20.5376 23.4842 20.4193 23.318L19.52 22.0775H19.007V23.994H18.5572V22.0775H18.0441L17.1447 23.318C17.0265 23.4842 16.9188 23.6155 16.8217 23.7118C16.7246 23.8081 16.6316 23.8803 16.543 23.9283C16.4544 23.9765 16.3656 24.0039 16.277 24.0105C16.1884 24.017 16.0912 24.0115 15.9856 23.994L15.916 23.6461C15.9792 23.6549 16.0394 23.656 16.0964 23.6494C16.1535 23.6429 16.2126 23.621 16.2738 23.5838C16.3351 23.5466 16.4015 23.4908 16.4733 23.4164C16.5451 23.342 16.6296 23.2392 16.7268 23.108L17.6261 21.8873C17.3644 21.5372 17.1078 21.1861 16.8565 20.8338C16.6053 20.4817 16.3509 20.1305 16.0933 19.7805H16.6316L18.0441 21.7035H18.5572V19.7805H19.007V21.7035H19.52L20.9325 19.7805H21.4708C21.2132 20.1305 20.9588 20.4817 20.7076 20.8338C20.4563 21.1861 20.1998 21.5372 19.938 21.8873L20.8374 23.108C20.9345 23.2392 21.019 23.342 21.0908 23.4164C21.1626 23.4908 21.2291 23.5466 21.2903 23.5838C21.3515 23.621 21.4106 23.6429 21.4676 23.6494C21.5247 23.656 21.5849 23.6549 21.6482 23.6461L21.5785 23.994ZM25.3408 23.994V20.4237L22.9403 23.994H22.4399V19.7805H22.8642V23.3377L25.2649 19.7805H25.7715V23.994H25.3408ZM29.8126 23.994V20.1677H27.9124L27.7857 22.6749C27.773 22.9635 27.7414 23.1977 27.6907 23.3771C27.6401 23.5565 27.564 23.6953 27.4627 23.7939C27.3614 23.8923 27.2294 23.9579 27.0668 23.9907C26.9042 24.0235 26.7047 24.0399 26.4682 24.0399L26.5063 23.6921C26.6414 23.6921 26.7585 23.6855 26.8578 23.6725C26.957 23.6593 27.0404 23.621 27.108 23.5576C27.1756 23.4941 27.2273 23.3957 27.2632 23.2622C27.2991 23.1287 27.3234 22.9417 27.3359 22.7011L27.4627 19.7805H30.2622V23.994H29.8126ZM33.1696 20.0627C32.9627 20.0627 32.7642 20.0725 32.5742 20.0923C32.3841 20.1119 32.2174 20.1787 32.0738 20.2924C31.9302 20.4061 31.8151 20.5867 31.7286 20.8338C31.642 21.0811 31.5988 21.43 31.5988 21.8807C31.5988 22.1825 31.6188 22.4375 31.659 22.6453C31.699 22.8531 31.7539 23.0238 31.8236 23.1572C31.8932 23.2907 31.9766 23.3945 32.0738 23.4689C32.1708 23.5433 32.2775 23.5969 32.3936 23.6297C32.5097 23.6626 32.6333 23.6823 32.7642 23.6888C32.895 23.6953 33.0302 23.6986 33.1696 23.6986C33.3046 23.6986 33.4377 23.6953 33.5685 23.6888C33.6995 23.6823 33.823 23.6626 33.9391 23.6297C34.0553 23.5969 34.163 23.5433 34.2621 23.4689C34.3613 23.3945 34.4458 23.2907 34.5155 23.1572C34.5852 23.0238 34.64 22.8531 34.6802 22.6453C34.7203 22.4375 34.7404 22.1825 34.7404 21.8807C34.7404 21.43 34.696 21.0811 34.6073 20.8338C34.5187 20.5867 34.4015 20.4061 34.2558 20.2924C34.1101 20.1787 33.9433 20.1119 33.7555 20.0923C33.5676 20.0725 33.3723 20.0627 33.1696 20.0627ZM31.13 21.8807C31.13 21.4081 31.1838 21.0286 31.2915 20.742C31.3992 20.4553 31.5449 20.2345 31.7286 20.0791C31.9123 19.9238 32.1276 19.8209 32.3746 19.7706C32.6217 19.7204 32.8866 19.6952 33.1696 19.6952C33.4525 19.6952 33.7175 19.7204 33.9645 19.7706C34.2114 19.8209 34.4268 19.9238 34.6105 20.0791C34.7942 20.2345 34.9399 20.4553 35.0476 20.742C35.1552 21.0286 35.2091 21.4081 35.2091 21.8807C35.2091 22.3532 35.1552 22.7328 35.0476 23.0193C34.9399 23.306 34.7942 23.527 34.6105 23.6823C34.4268 23.8375 34.2114 23.9404 33.9645 23.9907C33.7175 24.0411 33.4525 24.0662 33.1696 24.0662C32.8866 24.0662 32.6217 24.0411 32.3746 23.9907C32.1276 23.9404 31.9123 23.8375 31.7286 23.6823C31.5449 23.527 31.3992 23.306 31.2915 23.0193C31.1838 22.7328 31.13 22.3532 31.13 21.8807ZM38.9904 19.1701C38.9228 19.2095 38.8353 19.2456 38.7276 19.2784C38.6199 19.3112 38.5037 19.3375 38.3792 19.3572C38.2546 19.3768 38.1258 19.3933 37.9928 19.4064C37.8598 19.4196 37.7363 19.426 37.6223 19.426C37.5082 19.4217 37.3869 19.414 37.2581 19.4031C37.1293 19.3921 37.0046 19.3758 36.8844 19.3539C36.764 19.332 36.6532 19.3057 36.5518 19.2751C36.4505 19.2445 36.3681 19.2095 36.3047 19.1701L36.4758 18.8223C36.5223 18.8441 36.5909 18.8682 36.6816 18.8945C36.7724 18.9207 36.8717 18.9459 36.9794 18.97C37.087 18.994 37.2 19.0137 37.3183 19.0291C37.4364 19.0444 37.5462 19.052 37.6476 19.052C37.749 19.052 37.8587 19.0444 37.977 19.0291C38.0952 19.0137 38.2081 18.994 38.3158 18.97C38.4235 18.9459 38.5227 18.9207 38.6136 18.8945C38.7042 18.8682 38.773 18.8441 38.8194 18.8223L38.9904 19.1701ZM38.8764 23.994V20.4237L36.4758 23.994H35.9755V19.7805H36.3999V23.3377L38.8003 19.7805H39.3071V23.994H38.8764ZM46.8571 23.994C46.7514 24.0115 46.6533 24.017 46.5625 24.0105C46.4717 24.0039 46.3819 23.9765 46.2933 23.9283C46.2047 23.8803 46.1128 23.8081 46.0178 23.7118C45.9228 23.6155 45.8162 23.4842 45.6979 23.318L44.7985 22.0775H43.7977V23.994H43.348V19.7805H43.7977V21.7035H44.7985L46.211 19.7805H46.7746C46.5171 20.1305 46.2585 20.4817 45.9987 20.8338C45.739 21.1861 45.4783 21.5372 45.2165 21.8873L46.1159 23.108C46.2131 23.2392 46.2976 23.342 46.3694 23.4164C46.4411 23.4908 46.5076 23.5466 46.5688 23.5838C46.63 23.621 46.6892 23.6429 46.7462 23.6494C46.8032 23.656 46.8634 23.6549 46.9267 23.6461L46.8571 23.994ZM49.5616 20.0627C49.3547 20.0627 49.1562 20.0725 48.9663 20.0923C48.7762 20.1119 48.6094 20.1787 48.4659 20.2924C48.3223 20.4061 48.2072 20.5867 48.1206 20.8338C48.034 21.0811 47.9908 21.43 47.9908 21.8807C47.9908 22.1825 48.0108 22.4375 48.051 22.6453C48.0911 22.8531 48.146 23.0238 48.2157 23.1572C48.2853 23.2907 48.3687 23.3945 48.4659 23.4689C48.5629 23.5433 48.6696 23.5969 48.7857 23.6297C48.9018 23.6626 49.0253 23.6823 49.1562 23.6888C49.2871 23.6953 49.4222 23.6986 49.5616 23.6986C49.6967 23.6986 49.8297 23.6953 49.9606 23.6888C50.0916 23.6823 50.215 23.6626 50.3311 23.6297C50.4473 23.5969 50.555 23.5433 50.6542 23.4689C50.7534 23.3945 50.8379 23.2907 50.9076 23.1572C50.9773 23.0238 51.0321 22.8531 51.0723 22.6453C51.1123 22.4375 51.1325 22.1825 51.1325 21.8807C51.1325 21.43 51.088 21.0811 50.9994 20.8338C50.9107 20.5867 50.7935 20.4061 50.6479 20.2924C50.5022 20.1787 50.3354 20.1119 50.1475 20.0923C49.9596 20.0725 49.7643 20.0627 49.5616 20.0627ZM47.5221 21.8807C47.5221 21.4081 47.5759 21.0286 47.6836 20.742C47.7912 20.4553 47.937 20.2345 48.1206 20.0791C48.3043 19.9238 48.5197 19.8209 48.7667 19.7706C49.0138 19.7204 49.2786 19.6952 49.5616 19.6952C49.8445 19.6952 50.1095 19.7204 50.3565 19.7706C50.6035 19.8209 50.8188 19.9238 51.0025 20.0791C51.1863 20.2345 51.3319 20.4553 51.4396 20.742C51.5473 21.0286 51.6011 21.4081 51.6011 21.8807C51.6011 22.3532 51.5473 22.7328 51.4396 23.0193C51.3319 23.306 51.1863 23.527 51.0025 23.6823C50.8188 23.8375 50.6035 23.9404 50.3565 23.9907C50.1095 24.0411 49.8445 24.0662 49.5616 24.0662C49.2786 24.0662 49.0138 24.0411 48.7667 23.9907C48.5197 23.9404 48.3043 23.8375 48.1206 23.6823C47.937 23.527 47.7912 23.306 47.6836 23.0193C47.5759 22.7328 47.5221 22.3532 47.5221 21.8807ZM56.4402 23.994V20.3056H56.4212L54.9137 23.994H54.4197L52.9122 20.3056H52.8932V23.994H52.4625V19.7805H53.1466L54.4007 22.8126L54.6667 23.6068L54.9327 22.8126L56.1868 19.7805H56.8709V23.994H56.4402ZM60.7346 23.994V20.1677H58.3277V23.994H57.8781V19.7805H61.1844V23.994H60.7346ZM65.2254 23.994V20.1677H63.3252L63.1984 22.6749C63.1857 22.9635 63.1541 23.1977 63.1035 23.3771C63.0528 23.5565 62.9768 23.6953 62.8754 23.7939C62.7741 23.8923 62.6421 23.9579 62.4795 23.9907C62.317 24.0235 62.1174 24.0399 61.881 24.0399L61.9191 23.6921C62.0542 23.6921 62.1713 23.6855 62.2705 23.6725C62.3698 23.6593 62.4531 23.621 62.5208 23.5576C62.5883 23.4941 62.64 23.3957 62.6759 23.2622C62.7118 23.1287 62.7361 22.9417 62.7487 22.7011L62.8754 19.7805H65.675V23.994H65.2254ZM70.0455 23.7511C69.8681 23.8387 69.6453 23.9119 69.3772 23.971C69.1091 24.0301 68.8273 24.0597 68.5317 24.0597C68.2149 24.0597 67.9341 24.0345 67.6892 23.9841C67.4443 23.9338 67.2374 23.8321 67.0685 23.679C66.8996 23.5258 66.7708 23.3114 66.6822 23.0358C66.5934 22.7601 66.5491 22.3948 66.5491 21.9398C66.5491 21.4672 66.5956 21.0844 66.6885 20.7912C66.7814 20.4981 66.9123 20.2705 67.0811 20.1086C67.2501 19.9467 67.4517 19.8374 67.686 19.7805C67.9204 19.7235 68.179 19.6952 68.462 19.6952C68.766 19.6952 69.0363 19.7258 69.2727 19.7871C69.5092 19.8483 69.7087 19.9588 69.8713 20.1185C70.0339 20.2782 70.1573 20.4958 70.2418 20.7715C70.3262 21.0472 70.3685 21.4015 70.3685 21.8347V22.0053H67.0179C67.022 22.3685 67.0537 22.6595 67.1128 22.8783C67.1719 23.097 67.2649 23.2666 67.3915 23.3869C67.5182 23.5073 67.6829 23.5871 67.8856 23.6265C68.0883 23.6659 68.3353 23.6855 68.6267 23.6855C68.7532 23.6855 68.8768 23.6746 68.9972 23.6527C69.1175 23.6308 69.2294 23.6057 69.3329 23.5772C69.4363 23.5489 69.5313 23.5181 69.618 23.4853C69.7045 23.4526 69.7773 23.4251 69.8364 23.4034L70.0455 23.7511ZM69.8871 21.6247C69.8744 21.2878 69.8354 21.0165 69.7699 20.8109C69.7045 20.6053 69.6137 20.4466 69.4976 20.3351C69.3815 20.2235 69.2379 20.1502 69.0669 20.1152C68.8959 20.0801 68.6984 20.0627 68.4746 20.0627C68.2804 20.0627 68.0988 20.0747 67.9299 20.0987C67.761 20.1229 67.6122 20.1853 67.4834 20.2858C67.3546 20.3865 67.2501 20.5419 67.1699 20.7519C67.0896 20.9619 67.0411 21.2528 67.0241 21.6247H69.8871ZM74.6123 23.994C74.5067 24.0115 74.4085 24.017 74.3177 24.0105C74.2269 24.0039 74.1372 23.9765 74.0485 23.9283C73.9599 23.8803 73.868 23.8081 73.773 23.7118C73.678 23.6155 73.5714 23.4842 73.4531 23.318L72.5537 22.0775H71.5529V23.994H71.1032V19.7805H71.5529V21.7035H72.5537L73.9662 19.7805H74.5299C74.2723 20.1305 74.0137 20.4817 73.7539 20.8338C73.4942 21.1861 73.2335 21.5372 72.9718 21.8873L73.8712 23.108C73.9683 23.2392 74.0528 23.342 74.1246 23.4164C74.1963 23.4908 74.2628 23.5466 74.324 23.5838C74.3852 23.621 74.4444 23.6429 74.5014 23.6494C74.5584 23.656 74.6186 23.6549 74.6819 23.6461L74.6123 23.994ZM78.8053 23.7906C78.6279 23.878 78.4094 23.9481 78.1497 24.0006C77.89 24.0531 77.6124 24.0793 77.3169 24.0793C77.0043 24.0793 76.7224 24.0519 76.4712 23.9973C76.2199 23.9427 76.0057 23.8365 75.8283 23.679C75.6509 23.5214 75.5138 23.2994 75.4167 23.0128C75.3195 22.7262 75.2709 22.3511 75.2709 21.8873C75.2709 21.4234 75.3195 21.0483 75.4167 20.7617C75.5138 20.4751 75.6509 20.2531 75.8283 20.0955C76.0057 19.938 76.2199 19.8319 76.4712 19.7772C76.7224 19.7225 77.0043 19.6952 77.3169 19.6952C77.908 19.6952 78.383 19.7826 78.7419 19.9577L78.5329 20.3056C78.4104 20.2618 78.2437 20.2115 78.0325 20.1545C77.8214 20.0977 77.587 20.0693 77.3294 20.0693C77.1015 20.0693 76.8903 20.0857 76.6961 20.1185C76.5018 20.1513 76.334 20.2289 76.1925 20.3515C76.0511 20.4739 75.9403 20.6566 75.86 20.8995C75.7798 21.1423 75.7397 21.4716 75.7397 21.8873C75.7397 22.3073 75.7798 22.6387 75.86 22.8816C75.9403 23.1245 76.0511 23.306 76.1925 23.4263C76.334 23.5466 76.5018 23.6232 76.6961 23.656C76.8903 23.6888 77.1015 23.7052 77.3294 23.7052C77.4561 23.7052 77.5829 23.6953 77.7095 23.6757C77.8362 23.656 77.9545 23.633 78.0643 23.6068C78.174 23.5805 78.2753 23.5521 78.3682 23.5214C78.4611 23.4908 78.5372 23.4646 78.5963 23.4427L78.8053 23.7906Z" fill="white"/>
<path fill-rule="evenodd" clip-rule="evenodd" d="M16.0508 39.1473V27.0859H21.0368C21.8949 27.0859 22.6142 27.1266 23.1943 27.2081C23.7745 27.2895 24.2369 27.4397 24.5814 27.6589C24.9259 27.8781 25.1707 28.1881 25.3157 28.5889C25.4607 28.9897 25.5332 29.5093 25.5332 30.1483C25.5332 30.6241 25.503 31.0186 25.4426 31.3319C25.3821 31.6449 25.2886 31.9112 25.1616 32.1302C25.0347 32.3495 24.8775 32.5341 24.6902 32.6846C24.5029 32.8348 24.2883 32.9727 24.0465 33.0978C24.2883 33.2231 24.509 33.3577 24.7083 33.5019C24.9077 33.6457 25.077 33.8275 25.2161 34.0466C25.355 34.2657 25.4607 34.535 25.5332 34.8543C25.6059 35.1739 25.6421 35.5653 25.6421 36.0287C25.6421 36.6675 25.5666 37.1903 25.4154 37.5974C25.2642 38.0044 25.0136 38.3207 24.6631 38.5462C24.3126 38.7716 23.8471 38.9281 23.2669 39.0158C22.6867 39.1035 21.9674 39.1473 21.1092 39.1473H16.0508ZM21.3632 32.0833C21.6894 32.0833 21.9675 32.0677 22.1971 32.0363C22.4267 32.0049 22.6082 31.9299 22.741 31.8109C22.8741 31.6919 22.9708 31.5071 23.0312 31.2567C23.0917 31.0063 23.1219 30.6554 23.1219 30.2045C23.1219 29.9415 23.0856 29.738 23.0131 29.5939C22.9405 29.45 22.8257 29.3404 22.6686 29.2651C22.5114 29.19 22.2999 29.143 22.0339 29.1244C21.768 29.1055 21.4477 29.0961 21.073 29.0961H18.0814V32.0833H21.3632ZM21.1456 37.137C21.5204 37.137 21.8405 37.1308 22.1065 37.1183C22.3724 37.1057 22.59 37.0682 22.7593 37.0056C22.9284 36.9429 23.0493 36.8365 23.1219 36.6861C23.1943 36.5359 23.2307 36.3167 23.2307 36.0287C23.2307 35.5402 23.1974 35.1645 23.131 34.9014C23.0644 34.6385 22.9557 34.4473 22.8046 34.3283C22.6535 34.2094 22.4601 34.1406 22.2244 34.1216C21.9887 34.1029 21.7016 34.0935 21.3632 34.0935H18.0814V37.137H21.1456Z" fill="white"/>
<path fill-rule="evenodd" clip-rule="evenodd" d="M30.8032 33.9265C30.8396 34.6654 30.9272 35.2604 31.0661 35.7112C31.2052 36.1621 31.4137 36.5098 31.6917 36.754C31.9696 36.9982 32.3202 37.1642 32.7434 37.2519C33.1664 37.3394 33.6862 37.3833 34.3026 37.3833C34.6652 37.3833 35.0368 37.3489 35.4177 37.2801C35.7984 37.2112 36.1611 37.1297 36.5056 37.0359C36.85 36.9419 37.1643 36.8448 37.4484 36.7446C37.7324 36.6444 37.959 36.5629 38.1283 36.5003L38.7267 38.4355C38.4728 38.5606 38.1646 38.6797 37.8019 38.7925C37.4393 38.9051 37.0494 39.0054 36.6325 39.0929C36.2153 39.1807 35.7832 39.2526 35.3361 39.309C34.8888 39.3655 34.4537 39.3936 34.0306 39.3936C33.124 39.3936 32.3202 39.3185 31.6191 39.1682C30.9181 39.0179 30.3258 38.7205 29.8423 38.2756C29.3588 37.8311 28.9901 37.2112 28.7364 36.4158C28.4825 35.6206 28.3555 34.5714 28.3555 33.2689C28.3555 31.9162 28.4916 30.8203 28.7635 29.9812C29.0355 29.1421 29.4161 28.4908 29.9058 28.0273C30.3953 27.5639 30.9756 27.2508 31.6465 27.088C32.3173 26.9251 33.0576 26.8438 33.8674 26.8438C34.7378 26.8438 35.5082 26.9314 36.1791 27.1067C36.85 27.2821 37.4151 27.5982 37.8744 28.0555C38.3338 28.5127 38.6843 29.1358 38.9262 29.9248C39.1678 30.714 39.2886 31.7284 39.2886 32.9684V33.9265H30.8032ZM36.8229 31.8975C36.7865 31.2462 36.702 30.7202 36.5689 30.3193C36.4361 29.9187 36.2487 29.6085 36.007 29.3893C35.7651 29.1702 35.4689 29.0229 35.1185 28.9478C34.768 28.8727 34.3509 28.8351 33.8674 28.8351C33.4443 28.8351 33.0546 28.8572 32.6979 28.9008C32.3414 28.9447 32.0272 29.0668 31.7551 29.2672C31.4832 29.4677 31.2656 29.7745 31.1024 30.1878C30.9394 30.6012 30.8396 31.1711 30.8032 31.8975H36.8229Z" fill="white"/>
<path fill-rule="evenodd" clip-rule="evenodd" d="M43.9898 39.1473V29.0961H40.418L40.5993 27.0859H50.1906L50.0094 29.0961H46.3831V39.1473H43.9898Z" fill="white"/>
<path fill-rule="evenodd" clip-rule="evenodd" d="M58.7334 39.1473V29.1338H55.2885L54.9258 35.3711C54.8896 36.1976 54.7839 36.8678 54.6086 37.3813C54.4334 37.8949 54.1614 38.2925 53.7927 38.5743C53.4239 38.856 52.9495 39.0441 52.3694 39.1379C51.7892 39.2319 51.0821 39.2789 50.248 39.2789L50.3567 37.3437C50.7195 37.3437 51.0307 37.3282 51.2907 37.2967C51.5505 37.2655 51.7709 37.1903 51.9524 37.0714C52.1337 36.9524 52.2728 36.7644 52.3694 36.5077C52.4661 36.2509 52.5265 35.8971 52.5507 35.4463L53.0947 27.0859H61.1086V39.1473H58.7334Z" fill="white"/>
<path fill-rule="evenodd" clip-rule="evenodd" d="M74.752 39.1473V27.0859H77.1452V39.1473H74.752Z" fill="white"/>
<path fill-rule="evenodd" clip-rule="evenodd" d="M64.1113 39.1473V27.0859H66.5046V31.4257H68.8071C69.6654 31.4257 70.3846 31.4727 70.9648 31.5667C71.5451 31.6606 72.0105 31.8421 72.361 32.1115C72.7114 32.3808 72.9624 32.7692 73.1134 33.2763C73.2645 33.7836 73.34 34.4505 73.34 35.2771C73.34 36.1039 73.2645 36.7706 73.1134 37.278C72.9624 37.7851 72.7114 38.1767 72.361 38.4522C72.0105 38.7277 71.5451 38.9125 70.9648 39.0063C70.3846 39.1003 69.6654 39.1473 68.8071 39.1473H64.1113ZM70.8922 35.2207C70.8922 34.7949 70.856 34.463 70.7835 34.2251C70.711 33.9871 70.5963 33.8086 70.4391 33.6896C70.282 33.5707 70.0704 33.4987 69.8045 33.4735C69.5386 33.4486 69.2182 33.436 68.8434 33.436H66.5046V37.137H68.8434C69.2182 37.137 69.5386 37.1247 69.8045 37.0995C70.0704 37.0745 70.282 37.0025 70.4391 36.8835C70.5963 36.7644 70.711 36.5829 70.7835 36.3387C70.856 36.0944 70.8922 35.7594 70.8922 35.3336V35.2207Z" fill="white"/>
<path fill-rule="evenodd" clip-rule="evenodd" d="M80.2383 39.1473V27.0859H82.541V35.0141L87.2372 27.0859H89.7754V39.1473H87.4546V31.1814L82.7586 39.1473H80.2383Z" fill="white"/>
<path fill-rule="evenodd" clip-rule="evenodd" d="M13.1783 38.2051C12.8699 38.3574 12.5246 38.4947 12.1429 38.6171C11.7619 38.7391 11.3458 38.8459 10.8957 38.9369C10.4464 39.0277 9.97903 39.096 9.49503 39.1417C9.01171 39.1874 8.51358 39.2104 8.00224 39.2104C7.46203 39.2104 6.94606 39.1863 6.45549 39.1389C5.96507 39.0915 5.50099 39.0199 5.06458 38.9251C4.62481 38.8294 4.21732 38.6886 3.84263 38.5033V38.503C3.46706 38.317 3.12357 38.0857 2.81313 37.81C2.50183 37.5337 2.22596 37.2006 1.98523 36.8114V36.8113C1.74535 36.4229 1.54041 35.9782 1.3709 35.4782C1.20163 34.9785 1.07459 34.4017 0.990089 33.7487C0.905626 33.0964 0.863281 32.3677 0.863281 31.5632C0.863281 30.7588 0.905626 30.03 0.990089 29.3778C1.07459 28.7247 1.20163 28.148 1.3709 27.6482C1.54041 27.1481 1.74535 26.7035 1.98523 26.3151V26.315C2.22596 25.9258 2.50183 25.5927 2.81313 25.3163C3.12357 25.0407 3.46706 24.8094 3.84263 24.6234V24.6231C4.21732 24.4377 4.62481 24.2969 5.06458 24.2013C5.50099 24.1065 5.96507 24.0349 6.45549 23.9874C6.94606 23.9401 7.46203 23.916 8.00224 23.916C10.0564 23.916 11.7088 24.221 12.9589 24.8306L13.0076 24.8541L12.9909 24.9071L12.3468 26.9265L12.328 26.9851L12.2712 26.9669C12.0609 26.8994 11.8092 26.8222 11.5159 26.7358C11.2317 26.6519 10.9069 26.5587 10.5421 26.4567C10.1798 26.3555 9.79717 26.2792 9.39493 26.2287C8.99233 26.1782 8.56863 26.1527 8.12523 26.1527C7.82795 26.1527 7.54077 26.1641 7.26484 26.1865C6.98809 26.2091 6.72262 26.2431 6.47004 26.2878C6.17766 26.3396 5.75669 26.4402 5.38313 26.5821H5.38278C5.11317 26.6843 4.86793 26.8079 4.71695 26.9492C4.53583 27.1185 4.37346 27.3303 4.23055 27.5839C4.08641 27.8398 3.96211 28.1378 3.85784 28.4768C3.74809 28.8338 3.64521 29.3459 3.57214 29.9213C3.5057 30.4447 3.46366 31.0213 3.46366 31.5813C3.46366 32.1374 3.50778 32.7062 3.57607 33.2239C3.65397 33.8146 3.76361 34.3388 3.87532 34.7023C3.97982 35.0423 4.10417 35.3392 4.24762 35.5923C4.39018 35.8434 4.55258 36.0523 4.73401 36.2181L4.73421 36.218C4.91302 36.3815 5.22304 36.5124 5.55085 36.6132H5.55121C5.88397 36.7158 6.23437 36.7876 6.48757 36.8322C6.74022 36.8769 7.00558 36.911 7.28233 36.9335C7.5583 36.9561 7.84543 36.9674 8.14275 36.9674C8.36028 36.9674 8.57793 36.959 8.7958 36.9421C9.01291 36.9252 9.2309 36.8997 9.44874 36.866H9.44908C9.66715 36.8322 9.8775 36.7955 10.0789 36.7565C10.2833 36.7167 10.4813 36.6738 10.6714 36.6286C10.8595 36.5839 11.0413 36.5364 11.2161 36.4874C11.393 36.4379 11.5608 36.3867 11.7186 36.3348C11.8837 36.2804 12.0296 36.2311 12.1554 36.1879V36.1877C12.2803 36.1445 12.3967 36.1032 12.5053 36.063L12.5641 36.0409L12.5835 36.1032L13.21 38.129L13.2261 38.1815L13.1783 38.2051Z" fill="white"/>
<path fill-rule="evenodd" clip-rule="evenodd" d="M84.2472 26.2947C84.0982 25.0813 83.3382 24.1833 82.668 23.9077C82.9176 23.6077 83.0223 23.4527 83.267 23.1463C83.8808 23.2572 84.4979 23.9129 84.9216 24.6854C85.5883 23.6941 86.6259 22.8626 87.6162 22.6777C87.8878 22.9588 88.1601 23.2572 88.4359 23.5316C86.6729 23.9602 85.8359 25 85.2366 26.2947L84.2472 26.2947Z" fill="white"/>
<defs>
<linearGradient id="paint0_linear_1827_6122" x1="36.2575" y1="45.334" x2="36.2575" y2="60.3175" gradientUnits="userSpaceOnUse">
<stop stop-color="#71CEF8"/>
<stop offset="1" stop-color="#48B8EA"/>
</linearGradient>
<linearGradient id="paint1_linear_1827_6122" x1="42.7475" y1="44.8001" x2="54.0637" y2="53.8051" gradientUnits="userSpaceOnUse">
<stop stop-color="#7CC816"/>
<stop offset="1" stop-color="#83E309"/>
</linearGradient>
<linearGradient id="paint2_linear_1827_6122" x1="31.749" y1="15.2" x2="81.3707" y2="18.5541" gradientUnits="userSpaceOnUse">
<stop stop-color="#FECC00"/>
<stop offset="0.515625" stop-color="#FFE200"/>
<stop offset="1" stop-color="#FECC00"/>
</linearGradient>
</defs>
</svg>
