<svg width="46" height="35" viewBox="0 0 46 35" fill="none" xmlns="http://www.w3.org/2000/svg"><path d="M44 31.9995H42.5V14.5001C42.5 14.0064 42.3782 13.5203 42.1453 13.0849C41.9124 12.6496 41.5757 12.2785 41.165 12.0044L24.665 1.00382C24.1722 0.675305 23.5932 0.5 23.0009 0.5C22.4087 0.5 21.8297 0.675305 21.3369 1.00382L4.83687 12.0044C4.42583 12.2782 4.08874 12.6493 3.85553 13.0846C3.62232 13.52 3.50019 14.0062 3.5 14.5001V31.9995H2C1.60218 31.9995 1.22064 32.1575 0.93934 32.4388C0.658035 32.7201 0.5 33.1016 0.5 33.4995C0.5 33.8973 0.658035 34.2788 0.93934 34.5601C1.22064 34.8414 1.60218 34.9995 2 34.9995H44C44.3978 34.9995 44.7794 34.8414 45.0607 34.5601C45.342 34.2788 45.5 33.8973 45.5 33.4995C45.5 33.1016 45.342 32.7201 45.0607 32.4388C44.7794 32.1575 44.3978 31.9995 44 31.9995ZM6.5 14.5001L23 3.49945L39.5 14.4982V31.9995H35V21.4995C35 21.1016 34.842 20.7201 34.5607 20.4388C34.2794 20.1575 33.8978 19.9995 33.5 19.9995H12.5C12.1022 19.9995 11.7206 20.1575 11.4393 20.4388C11.158 20.7201 11 21.1016 11 21.4995V31.9995H6.5V14.5001ZM32 22.9995V25.9995H24.5V22.9995H32ZM21.5 25.9995H14V22.9995H21.5V25.9995ZM14 28.9995H21.5V31.9995H14V28.9995ZM24.5 28.9995H32V31.9995H24.5V28.9995Z" fill="#C0C0C0"/></svg>