<svg width="46" height="35" viewBox="0 0 46 35" fill="none" xmlns="http://www.w3.org/2000/svg"><path d="M39.4997 10.65V7.5C39.4997 5.51088 38.7095 3.60322 37.303 2.1967C35.8965 0.790176 33.9888 0 31.9997 0H13.9997C12.0106 0 10.1029 0.790176 8.69641 2.1967C7.28988 3.60322 6.49971 5.51088 6.49971 7.5V10.65C4.80427 10.9943 3.27999 11.9141 2.18514 13.2536C1.09028 14.5931 0.492187 16.27 0.492188 18C0.492187 19.73 1.09028 21.4069 2.18514 22.7464C3.27999 24.0859 4.80427 25.0057 6.49971 25.35V31.5C6.49971 32.2957 6.81578 33.0587 7.37839 33.6213C7.94099 34.1839 8.70406 34.5 9.49971 34.5H36.4997C37.2954 34.5 38.0584 34.1839 38.621 33.6213C39.1836 33.0587 39.4997 32.2957 39.4997 31.5V25.35C41.1951 25.0057 42.7194 24.0859 43.8143 22.7464C44.9091 21.4069 45.5072 19.73 45.5072 18C45.5072 16.27 44.9091 14.5931 43.8143 13.2536C42.7194 11.9141 41.1951 10.9943 39.4997 10.65ZM13.9997 3H31.9997C33.1932 3 34.3378 3.47411 35.1817 4.31802C36.0256 5.16193 36.4997 6.30653 36.4997 7.5V10.65C34.8068 10.9981 33.2857 11.9192 32.1927 13.2581C31.0997 14.5969 30.5018 16.2717 30.4997 18H15.4997C15.4976 16.2717 14.8997 14.5969 13.8067 13.2581C12.7138 11.9192 11.1926 10.9981 9.49971 10.65V7.5C9.49971 6.30653 9.97381 5.16193 10.8177 4.31802C11.6616 3.47411 12.8062 3 13.9997 3ZM38.0728 22.5H37.9997C37.6019 22.5 37.2203 22.658 36.939 22.9393C36.6577 23.2206 36.4997 23.6022 36.4997 24V31.5H9.49971V24C9.49971 23.6022 9.34167 23.2206 9.06037 22.9393C8.77906 22.658 8.39753 22.5 7.99971 22.5H7.92658C7.03982 22.4856 6.17709 22.2095 5.44675 21.7063C4.71641 21.2032 4.15103 20.4954 3.82162 19.672C3.49222 18.8486 3.41347 17.9462 3.59527 17.0781C3.77707 16.2101 4.21132 15.4151 4.84347 14.7931C5.47562 14.171 6.27749 13.7497 7.14835 13.5819C8.01921 13.4141 8.92023 13.5074 9.73825 13.85C10.5563 14.1926 11.2548 14.7693 11.7461 15.5077C12.2374 16.2461 12.4996 17.1131 12.4997 18V25.5C12.4997 25.8978 12.6577 26.2794 12.939 26.5607C13.2204 26.842 13.6019 27 13.9997 27C14.3975 27 14.7791 26.842 15.0604 26.5607C15.3417 26.2794 15.4997 25.8978 15.4997 25.5V21H30.4997V25.5C30.4997 25.8978 30.6577 26.2794 30.939 26.5607C31.2204 26.842 31.6019 27 31.9997 27C32.3975 27 32.7791 26.842 33.0604 26.5607C33.3417 26.2794 33.4997 25.8978 33.4997 25.5V18C33.4998 17.1131 33.762 16.2461 34.2533 15.5077C34.7446 14.7693 35.4431 14.1926 36.2612 13.85C37.0792 13.5074 37.9802 13.4141 38.8511 13.5819C39.7219 13.7497 40.5238 14.171 41.1559 14.7931C41.7881 15.4151 42.2223 16.2101 42.4041 17.0781C42.5859 17.9462 42.5072 18.8486 42.1778 19.672C41.8484 20.4954 41.283 21.2032 40.5527 21.7063C39.8223 22.2095 38.9596 22.4856 38.0728 22.5Z" fill="#C0C0C0"/></svg>