<svg width="34" height="41" viewBox="0 0 34 41" fill="none" xmlns="http://www.w3.org/2000/svg"><path d="M32 7.49943C29.9567 7.49941 27.9314 7.88095 26.0281 8.62443C23.3431 3.05568 17.9188 0.288183 17.6712 0.164433C17.4629 0.0601525 17.233 0.00585938 17 0.00585938C16.767 0.00585937 16.5371 0.0601525 16.3287 0.164433C16.0794 0.288183 10.6569 3.05568 7.97187 8.62443C6.06864 7.88095 4.0433 7.49941 2 7.49943C1.60218 7.49943 1.22064 7.65747 0.93934 7.93877C0.658036 8.22008 0.5 8.60161 0.5 8.99943V23.9994C0.5 28.3755 2.23839 32.5723 5.33274 35.6667C8.42709 38.7611 12.6239 40.4994 17 40.4994C21.3761 40.4994 25.5729 38.7611 28.6673 35.6667C31.7616 32.5723 33.5 28.3755 33.5 23.9994V8.99943C33.5 8.60161 33.342 8.22008 33.0607 7.93877C32.7794 7.65747 32.3978 7.49943 32 7.49943ZM15.5 37.4169C12.2013 37.044 9.15514 35.4703 6.9421 32.9959C4.72905 30.5214 3.50385 27.3192 3.5 23.9994V21.0819C6.7987 21.4549 9.84486 23.0285 12.0579 25.503C14.271 27.9775 15.4962 31.1797 15.5 34.4994V37.4169ZM15.5 25.0232C14.1244 23.0625 12.3384 21.4248 10.2662 20.2239C8.19394 19.023 5.88508 18.2876 3.5 18.0688V10.5819C6.7987 10.9549 9.84486 12.5285 12.0579 15.003C14.271 17.4775 15.4962 20.6797 15.5 23.9994V25.0232ZM10.6531 9.95756C12.3819 6.35568 15.605 4.08318 17 3.22631C18.395 4.08506 21.6181 6.35756 23.345 9.95756C20.572 11.6737 18.3653 14.1679 17 17.1294C15.6346 14.1674 13.4271 11.6731 10.6531 9.95756ZM30.5 23.9994C30.4962 27.3192 29.271 30.5214 27.0579 32.9959C24.8449 35.4703 21.7987 37.044 18.5 37.4169V34.4994C18.5038 31.1797 19.729 27.9775 21.9421 25.503C24.1551 23.0285 27.2013 21.4549 30.5 21.0819V23.9994ZM30.5 18.0688C28.1149 18.2876 25.8061 19.023 23.7338 20.2239C21.6616 21.4248 19.8756 23.0625 18.5 25.0232V23.9994C18.5038 20.6797 19.729 17.4775 21.9421 15.003C24.1551 12.5285 27.2013 10.9549 30.5 10.5819V18.0688Z" fill="#C0C0C0"/></svg>