<svg width="40" height="40" viewBox="0 0 40 40" fill="none" xmlns="http://www.w3.org/2000/svg"><path d="M13.25 22.25C12.805 22.25 12.37 22.118 12 21.8708C11.63 21.6236 11.3416 21.2722 11.1713 20.861C11.001 20.4499 10.9564 19.9975 11.0432 19.561C11.1301 19.1246 11.3443 18.7237 11.659 18.409C11.9737 18.0943 12.3746 17.88 12.8111 17.7932C13.2475 17.7064 13.6999 17.751 14.111 17.9213C14.5222 18.0916 14.8736 18.38 15.1208 18.75C15.368 19.12 15.5 19.555 15.5 20C15.5 20.5967 15.263 21.169 14.841 21.591C14.419 22.0129 13.8467 22.25 13.25 22.25ZM26.75 17.75C26.305 17.75 25.87 17.882 25.5 18.1292C25.13 18.3764 24.8416 18.7278 24.6713 19.139C24.501 19.5501 24.4564 20.0025 24.5432 20.439C24.6301 20.8754 24.8444 21.2763 25.159 21.591C25.4737 21.9057 25.8746 22.12 26.3111 22.2068C26.7475 22.2936 27.1999 22.249 27.611 22.0787C28.0222 21.9084 28.3736 21.62 28.6208 21.25C28.868 20.88 29 20.445 29 20C29 19.4033 28.763 18.831 28.341 18.409C27.919 17.9871 27.3467 17.75 26.75 17.75ZM24.4494 26.2306C23.1134 27.0598 21.5724 27.4991 20 27.4991C18.4277 27.4991 16.8866 27.0598 15.5506 26.2306C15.214 26.0183 14.8068 25.9484 14.4186 26.0363C14.0304 26.1242 13.693 26.3627 13.4806 26.6994C13.2683 27.036 13.1984 27.4433 13.2863 27.8315C13.3742 28.2197 13.6127 28.557 13.9494 28.7694C15.7647 29.901 17.8609 30.5009 20 30.5009C22.1391 30.5009 24.2354 29.901 26.0506 28.7694C26.3873 28.557 26.6258 28.2197 26.7137 27.8315C26.8016 27.4433 26.7317 27.036 26.5194 26.6994C26.307 26.3627 25.9697 26.1242 25.5815 26.0363C25.1933 25.9484 24.786 26.0183 24.4494 26.2306ZM39.5 20C39.5 23.8567 38.3564 27.6269 36.2137 30.8336C34.071 34.0404 31.0255 36.5397 27.4623 38.0156C23.8992 39.4916 19.9784 39.8777 16.1957 39.1253C12.4131 38.3729 8.93855 36.5157 6.21143 33.7886C3.4843 31.0615 1.62711 27.5869 0.874696 23.8043C0.122284 20.0216 0.508449 16.1008 1.98436 12.5377C3.46027 8.97451 5.95963 5.92903 9.16639 3.78634C12.3731 1.64366 16.1433 0.5 20 0.5C25.1701 0.50546 30.1268 2.56167 33.7826 6.21745C37.4383 9.87322 39.4945 14.83 39.5 20ZM36.5 20C36.4948 15.7525 34.8538 11.6701 31.9177 8.60071C28.9817 5.5313 24.9763 3.71066 20.7331 3.51688C18.56 6.57125 18.5 9.4775 18.5 9.5C18.5 9.89782 18.658 10.2794 18.9393 10.5607C19.2207 10.842 19.6022 11 20 11C20.3978 11 20.7794 10.842 21.0607 10.5607C21.342 10.2794 21.5 9.89782 21.5 9.5C21.5 9.10218 21.658 8.72064 21.9393 8.43934C22.2207 8.15804 22.6022 8 23 8C23.3978 8 23.7794 8.15804 24.0607 8.43934C24.342 8.72064 24.5 9.10218 24.5 9.5C24.5 10.6935 24.0259 11.8381 23.182 12.682C22.3381 13.5259 21.1935 14 20 14C18.8065 14 17.6619 13.5259 16.818 12.682C15.9741 11.8381 15.5 10.6935 15.5 9.5C15.5 9.36312 15.5244 6.81875 17.0863 3.75687C13.9969 4.31113 11.1298 5.73503 8.82122 7.86148C6.51267 9.98793 4.85851 12.7287 4.05286 15.7622C3.2472 18.7957 3.32346 21.9961 4.2727 24.9877C5.22194 27.9794 7.00477 30.6383 9.41198 32.6524C11.8192 34.6664 14.7509 35.9521 17.8632 36.3586C20.9754 36.7651 24.139 36.2755 26.9827 34.9472C29.8265 33.6189 32.2324 31.5071 33.9181 28.8596C35.6039 26.2121 36.4995 23.1387 36.5 20Z" fill="#C0C0C0"/></svg>