<svg width="33" height="40" viewBox="0 0 33 40" fill="none" xmlns="http://www.w3.org/2000/svg"><path d="M29.7206 6.51688C27.4575 2.6375 24.36 0.5 21 0.5H12C8.64 0.5 5.5425 2.6375 3.27938 6.51688C1.16438 10.1412 0 14.9375 0 20C0 25.0625 1.16438 29.8588 3.27938 33.4831C5.5425 37.3625 8.64 39.5 12 39.5H21C24.36 39.5 27.4575 37.3625 29.7206 33.4831C31.8356 29.8588 33 25.0625 33 20C33 14.9375 31.8356 10.1412 29.7206 6.51688ZM29.9606 18.5H23.9606C23.8434 15.4219 23.2306 12.3829 22.1456 9.5H27.8812C29.0287 12.0087 29.7862 15.125 29.9606 18.5ZM26.0981 6.5H20.7113C20.0847 5.41309 19.3293 4.40581 18.4613 3.5H21C22.875 3.5 24.6375 4.625 26.0981 6.5ZM3 20C3 11.0562 7.125 3.5 12 3.5C16.875 3.5 21 11.0562 21 20C21 28.9438 16.875 36.5 12 36.5C7.125 36.5 3 28.9438 3 20ZM21 36.5H18.4669C19.3349 35.5942 20.0903 34.5869 20.7169 33.5H26.1038C24.6375 35.375 22.875 36.5 21 36.5ZM27.8812 30.5H22.1475C23.2324 27.6171 23.8453 24.5781 23.9625 21.5H29.9625C29.7863 24.875 29.0287 27.9912 27.8812 30.5Z" fill="#C0C0C0"/></svg>