<svg width="46" height="38" viewBox="0 0 46 38" fill="none" xmlns="http://www.w3.org/2000/svg"><path d="M42.5 14.0001H38C38 13.6022 37.842 13.2207 37.5607 12.9394C37.2794 12.6581 36.8978 12.5001 36.5 12.5001H24.5C24.1022 12.5001 23.7206 12.6581 23.4393 12.9394C23.158 13.2207 23 13.6022 23 14.0001H11V5.75007C11 5.15333 11.2371 4.58103 11.659 4.15908C12.081 3.73712 12.6533 3.50007 13.25 3.50007C13.7773 3.49791 14.2899 3.67452 14.7039 4.00108C15.118 4.32764 15.4092 4.78487 15.53 5.29819C15.6124 5.68476 15.844 6.02317 16.1746 6.23989C16.5051 6.45661 16.9078 6.53411 17.2952 6.45555C17.6825 6.377 18.0232 6.14873 18.2432 5.82036C18.4632 5.49199 18.5447 5.09006 18.47 4.70194C18.2153 3.50834 17.5572 2.4389 16.6065 1.67361C15.6558 0.908314 14.4705 0.493886 13.25 0.500068C11.8576 0.500068 10.5223 1.05319 9.53769 2.03776C8.55312 3.02232 8 4.35768 8 5.75007V14.0001H3.5C2.70435 14.0001 1.94129 14.3161 1.37868 14.8787C0.816071 15.4414 0.5 16.2044 0.5 17.0001V23.0001C0.502978 25.7839 1.61018 28.4529 3.57867 30.4214C5.54715 32.3899 8.21614 33.4971 11 33.5001V36.5001C11 36.8979 11.158 37.2794 11.4393 37.5607C11.7206 37.842 12.1022 38.0001 12.5 38.0001C12.8978 38.0001 13.2794 37.842 13.5607 37.5607C13.842 37.2794 14 36.8979 14 36.5001V33.5001H32V36.5001C32 36.8979 32.158 37.2794 32.4393 37.5607C32.7206 37.842 33.1022 38.0001 33.5 38.0001C33.8978 38.0001 34.2794 37.842 34.5607 37.5607C34.842 37.2794 35 36.8979 35 36.5001V33.5001C37.7839 33.4971 40.4528 32.3899 42.4213 30.4214C44.3898 28.4529 45.497 25.7839 45.5 23.0001V17.0001C45.5 16.2044 45.1839 15.4414 44.6213 14.8787C44.0587 14.3161 43.2957 14.0001 42.5 14.0001ZM35 15.5001V21.5001H26V15.5001H35ZM42.5 23.0001C42.5 23.985 42.306 24.9603 41.9291 25.8702C41.5522 26.7801 40.9997 27.6069 40.3033 28.3034C39.6069 28.9998 38.7801 29.5523 37.8701 29.9292C36.9602 30.3061 35.9849 30.5001 35 30.5001H11C9.01088 30.5001 7.10322 29.7099 5.6967 28.3034C4.29018 26.8968 3.5 24.9892 3.5 23.0001V17.0001H23V23.0001C23 23.3979 23.158 23.7794 23.4393 24.0607C23.7206 24.342 24.1022 24.5001 24.5 24.5001H36.5C36.8978 24.5001 37.2794 24.342 37.5607 24.0607C37.842 23.7794 38 23.3979 38 23.0001V17.0001H42.5V23.0001Z" fill="#C0C0C0"/></svg>