<svg width="43" height="42" viewBox="0 0 43 42" fill="none" xmlns="http://www.w3.org/2000/svg"><path d="M41.9144 7.81255C41.822 7.42856 41.6542 7.06674 41.4208 6.7481C41.1875 6.42945 40.8932 6.16031 40.555 5.9563C34.6566 2.38817 27.8943 0.501953 21.0006 0.501953C14.107 0.501953 7.34467 2.38817 1.44626 5.9563C1.10905 6.16081 0.815475 6.4298 0.582327 6.74788C0.34918 7.06596 0.181037 7.4269 0.0875185 7.81003C-0.006 8.19315 -0.0230586 8.59097 0.0373183 8.98069C0.0976951 9.37042 0.234323 9.74442 0.439384 10.0813L18.4394 39.5694C18.7068 40.0103 19.0833 40.3747 19.5326 40.6277C19.9819 40.8806 20.4888 41.0135 21.0044 41.0135C21.52 41.0135 22.0269 40.8806 22.4762 40.6277C22.9255 40.3747 23.302 40.0103 23.5694 39.5694L41.5694 10.0813C41.7747 9.745 41.9109 9.37117 41.9702 8.98164C42.0294 8.5921 42.0104 8.19467 41.9144 7.81255ZM8.92376 18.2188C9.41114 17.7595 9.9949 17.4147 10.6325 17.2097C11.27 17.0047 11.9453 16.9446 12.6091 17.0337C13.2728 17.1229 13.9083 17.3591 14.4692 17.725C15.03 18.091 15.5021 18.5776 15.8511 19.1492C16.2 19.7209 16.4169 20.3632 16.486 21.0293C16.5551 21.6954 16.4747 22.3686 16.2505 22.9997C16.0264 23.6308 15.6642 24.2039 15.1905 24.6772C14.7167 25.1506 14.1432 25.5122 13.5119 25.7357L8.92376 18.2188ZM25.4088 30.7719C24.6576 30.0636 24.1728 29.1186 24.0358 28.0952C23.8987 27.0719 24.1177 26.0326 24.6561 25.1516C25.1944 24.2706 26.0193 23.6015 26.9924 23.2565C27.9655 22.9116 29.0276 22.9117 30.0006 23.2569L25.4088 30.7719ZM31.5831 20.66C29.9159 19.9033 28.0294 19.7826 26.2793 20.3206C24.5292 20.8587 23.0364 22.0183 22.0822 23.581C21.1281 25.1437 20.7785 27.0014 21.0994 28.804C21.4203 30.6066 22.3895 32.2296 23.8244 33.3669L21.0006 38L15.0944 28.3307C16.0641 27.8937 16.9297 27.2555 17.6339 26.4584C18.338 25.6614 18.8646 24.7236 19.1787 23.7075C19.4927 22.6913 19.5871 21.62 19.4554 20.5646C19.3238 19.5092 18.9692 18.4939 18.4152 17.586C17.8612 16.6782 17.1204 15.8985 16.242 15.2988C15.3636 14.6991 14.3678 14.2931 13.3205 14.1077C12.2732 13.9223 11.1984 13.9618 10.1676 14.2235C9.1367 14.4852 8.17328 14.9632 7.34126 15.6257L6.15063 13.6738C10.6226 10.944 15.7604 9.49982 20.9997 9.49982C26.239 9.49982 31.3768 10.944 35.8488 13.6738L31.5831 20.66ZM37.4144 11.1107C32.4705 8.09537 26.7915 6.50019 21.0006 6.50019C15.2098 6.50019 9.53078 8.09537 4.58688 11.1107L3.00063 8.51942C8.43107 5.23744 14.6555 3.50264 21.0006 3.50264C27.3458 3.50264 33.5702 5.23744 39.0006 8.51942L37.4144 11.1107Z" fill="#C0C0C0"/></svg>