<svg width="20" height="20" viewBox="0 0 20 20" fill="none" xmlns="http://www.w3.org/2000/svg"><path d="M10.0007 6.75053C8.20575 6.75053 6.75067 8.20561 6.75067 10.0005C6.75067 11.7955 8.20575 13.2505 10.0007 13.2505C11.7956 13.2505 13.2507 11.7955 13.2507 10.0005C13.2507 8.20561 11.7956 6.75053 10.0007 6.75053Z" fill="#C0C0C0"/><path fill-rule="evenodd" clip-rule="evenodd" d="M4.77021 1.082C8.21833 0.696624 11.783 0.696624 15.2312 1.082C17.1296 1.29418 18.6607 2.78995 18.8836 4.69501C19.2958 8.22001 19.2958 11.7811 18.8836 15.3061C18.6607 17.2111 17.1296 18.7069 15.2312 18.9191C11.783 19.3044 8.21833 19.3044 4.77021 18.9191C2.87181 18.7069 1.34062 17.2111 1.1178 15.3061C0.705523 11.7811 0.705523 8.22001 1.1178 4.69501C1.34062 2.78995 2.87181 1.29418 4.77021 1.082ZM15.0007 4.00053C14.4484 4.00053 14.0007 4.44825 14.0007 5.00053C14.0007 5.55282 14.4484 6.00053 15.0007 6.00053C15.553 6.00053 16.0007 5.55282 16.0007 5.00053C16.0007 4.44825 15.553 4.00053 15.0007 4.00053ZM5.25067 10.0005C5.25067 7.37718 7.37732 5.25053 10.0007 5.25053C12.624 5.25053 14.7507 7.37718 14.7507 10.0005C14.7507 12.6239 12.624 14.7505 10.0007 14.7505C7.37732 14.7505 5.25067 12.6239 5.25067 10.0005Z" fill="#C0C0C0"/></svg>