<svg width="97" height="64" viewBox="0 0 97 64" fill="none" xmlns="http://www.w3.org/2000/svg"><path fill-rule="evenodd" clip-rule="evenodd" d="M66.8938 58.2401C59.2516 63.3939 48.7494 63.0042 39.8748 60.6761C28.889 57.7941 28.5903 50.9587 12.7773 47.8625C12.0547 47.7211 11.6211 47.4757 11.6211 47.334C13.7137 47.4779 19.6376 47.7847 26.5711 48.8641C34.2244 49.8053 43.0099 54.5453 47.0905 56.134C51.5782 57.8813 54.2393 58.3304 58.4201 58.6434C62.3997 58.9415 64.3708 58.7871 66.8938 58.2401Z" fill="url(#paint0_linear_1634_4314)"/><path fill-rule="evenodd" clip-rule="evenodd" d="M11.877 46.8185C12.803 45.8185 25.7689 44.8125 32.7147 44.8125C42.1081 44.8125 51.7766 47.3348 61.1701 47.3348C68.1388 47.3348 76.6671 46.4519 81.9951 45.6518C78.3036 52.903 69.4812 57.003 62.1867 57.0066C46.936 57.0144 42.8004 50.4095 29.2016 48.2379C20.5631 46.8584 11.877 46.8185 11.877 46.8185Z" fill="url(#paint1_linear_1634_4314)"/><path fill-rule="evenodd" clip-rule="evenodd" d="M61.279 2.09081C71.2987 2.93081 79.3545 9.53177 82.8058 18.5861C84.0251 21.7853 83.6488 21.4701 81.7204 18.5267C77.98 12.8174 71.4084 9.16953 64.3333 8.57657C57.6168 8.01353 52.7341 10.2434 49.8702 14.0143C47.3252 17.3652 41.0513 18.0162 34.1504 17.4375L34.1577 17.4233C39.1283 7.44669 50.1895 1.16113 61.279 2.09081Z" fill="url(#paint2_linear_1634_4314)"/><path fill-rule="evenodd" clip-rule="evenodd" d="M24.5785 25.994C24.4729 26.0115 24.3747 26.017 24.2839 26.0105C24.1932 26.0039 24.1035 25.9765 24.0147 25.9283C23.9261 25.8803 23.8343 25.8081 23.7393 25.7118C23.6442 25.6155 23.5376 25.4842 23.4193 25.318L22.52 24.0775H22.007V25.994H21.5572V24.0775H21.0441L20.1447 25.318C20.0265 25.4842 19.9188 25.6155 19.8217 25.7118C19.7246 25.8081 19.6316 25.8803 19.543 25.9283C19.4544 25.9765 19.3656 26.0039 19.277 26.0105C19.1884 26.017 19.0912 26.0115 18.9856 25.994L18.916 25.6461C18.9792 25.6549 19.0394 25.656 19.0964 25.6494C19.1535 25.6429 19.2126 25.621 19.2738 25.5838C19.3351 25.5466 19.4015 25.4908 19.4733 25.4164C19.5451 25.342 19.6296 25.2392 19.7268 25.108L20.6261 23.8873C20.3644 23.5372 20.1078 23.1861 19.8565 22.8338C19.6053 22.4817 19.3509 22.1305 19.0933 21.7805H19.6316L21.0441 23.7035H21.5572V21.7805H22.007V23.7035H22.52L23.9325 21.7805H24.4708C24.2132 22.1305 23.9588 22.4817 23.7076 22.8338C23.4563 23.1861 23.1998 23.5372 22.938 23.8873L23.8374 25.108C23.9345 25.2392 24.019 25.342 24.0908 25.4164C24.1626 25.4908 24.2291 25.5466 24.2903 25.5838C24.3515 25.621 24.4106 25.6429 24.4676 25.6494C24.5247 25.656 24.5849 25.6549 24.6482 25.6461L24.5785 25.994ZM28.3408 25.994V22.4237L25.9403 25.994H25.4399V21.7805H25.8642V25.3377L28.2649 21.7805H28.7715V25.994H28.3408ZM32.8126 25.994V22.1677H30.9124L30.7857 24.6749C30.773 24.9635 30.7414 25.1977 30.6907 25.3771C30.6401 25.5565 30.564 25.6953 30.4627 25.7939C30.3614 25.8923 30.2294 25.9579 30.0668 25.9907C29.9042 26.0235 29.7047 26.0399 29.4682 26.0399L29.5063 25.6921C29.6414 25.6921 29.7585 25.6855 29.8578 25.6725C29.957 25.6593 30.0404 25.621 30.108 25.5576C30.1756 25.4941 30.2273 25.3957 30.2632 25.2622C30.2991 25.1287 30.3234 24.9417 30.3359 24.7011L30.4627 21.7805H33.2622V25.994H32.8126ZM36.1696 22.0627C35.9627 22.0627 35.7642 22.0725 35.5742 22.0923C35.3841 22.1119 35.2174 22.1787 35.0738 22.2924C34.9302 22.4061 34.8151 22.5867 34.7286 22.8338C34.642 23.0811 34.5988 23.43 34.5988 23.8807C34.5988 24.1825 34.6188 24.4375 34.659 24.6453C34.699 24.8531 34.7539 25.0238 34.8236 25.1572C34.8932 25.2907 34.9766 25.3945 35.0738 25.4689C35.1708 25.5433 35.2775 25.5969 35.3936 25.6297C35.5097 25.6626 35.6333 25.6823 35.7642 25.6888C35.895 25.6953 36.0302 25.6986 36.1696 25.6986C36.3046 25.6986 36.4377 25.6953 36.5685 25.6888C36.6995 25.6823 36.823 25.6626 36.9391 25.6297C37.0553 25.5969 37.163 25.5433 37.2621 25.4689C37.3613 25.3945 37.4458 25.2907 37.5155 25.1572C37.5852 25.0238 37.64 24.8531 37.6802 24.6453C37.7203 24.4375 37.7404 24.1825 37.7404 23.8807C37.7404 23.43 37.696 23.0811 37.6073 22.8338C37.5187 22.5867 37.4015 22.4061 37.2558 22.2924C37.1101 22.1787 36.9433 22.1119 36.7555 22.0923C36.5676 22.0725 36.3723 22.0627 36.1696 22.0627ZM34.13 23.8807C34.13 23.4081 34.1838 23.0286 34.2915 22.742C34.3992 22.4553 34.5449 22.2345 34.7286 22.0791C34.9123 21.9238 35.1276 21.8209 35.3746 21.7706C35.6217 21.7204 35.8866 21.6952 36.1696 21.6952C36.4525 21.6952 36.7175 21.7204 36.9645 21.7706C37.2114 21.8209 37.4268 21.9238 37.6105 22.0791C37.7942 22.2345 37.9399 22.4553 38.0476 22.742C38.1552 23.0286 38.2091 23.4081 38.2091 23.8807C38.2091 24.3532 38.1552 24.7328 38.0476 25.0193C37.9399 25.306 37.7942 25.527 37.6105 25.6823C37.4268 25.8375 37.2114 25.9404 36.9645 25.9907C36.7175 26.0411 36.4525 26.0662 36.1696 26.0662C35.8866 26.0662 35.6217 26.0411 35.3746 25.9907C35.1276 25.9404 34.9123 25.8375 34.7286 25.6823C34.5449 25.527 34.3992 25.306 34.2915 25.0193C34.1838 24.7328 34.13 24.3532 34.13 23.8807ZM41.9904 21.1701C41.9228 21.2095 41.8353 21.2456 41.7276 21.2784C41.6199 21.3112 41.5037 21.3375 41.3792 21.3572C41.2546 21.3768 41.1258 21.3933 40.9928 21.4064C40.8598 21.4196 40.7363 21.426 40.6223 21.426C40.5082 21.4217 40.3869 21.414 40.2581 21.4031C40.1293 21.3921 40.0046 21.3758 39.8844 21.3539C39.764 21.332 39.6532 21.3057 39.5518 21.2751C39.4505 21.2445 39.3681 21.2095 39.3047 21.1701L39.4758 20.8223C39.5223 20.8441 39.5909 20.8682 39.6816 20.8945C39.7724 20.9207 39.8717 20.9459 39.9794 20.97C40.087 20.994 40.2 21.0137 40.3183 21.0291C40.4364 21.0444 40.5462 21.052 40.6476 21.052C40.749 21.052 40.8587 21.0444 40.977 21.0291C41.0952 21.0137 41.2081 20.994 41.3158 20.97C41.4235 20.9459 41.5227 20.9207 41.6136 20.8945C41.7042 20.8682 41.773 20.8441 41.8194 20.8223L41.9904 21.1701ZM41.8764 25.994V22.4237L39.4758 25.994H38.9755V21.7805H39.3999V25.3377L41.8003 21.7805H42.3071V25.994H41.8764ZM49.8571 25.994C49.7514 26.0115 49.6533 26.017 49.5625 26.0105C49.4717 26.0039 49.3819 25.9765 49.2933 25.9283C49.2047 25.8803 49.1128 25.8081 49.0178 25.7118C48.9228 25.6155 48.8162 25.4842 48.6979 25.318L47.7985 24.0775H46.7977V25.994H46.348V21.7805H46.7977V23.7035H47.7985L49.211 21.7805H49.7746C49.5171 22.1305 49.2585 22.4817 48.9987 22.8338C48.739 23.1861 48.4783 23.5372 48.2165 23.8873L49.1159 25.108C49.2131 25.2392 49.2976 25.342 49.3694 25.4164C49.4411 25.4908 49.5076 25.5466 49.5688 25.5838C49.63 25.621 49.6892 25.6429 49.7462 25.6494C49.8032 25.656 49.8634 25.6549 49.9267 25.6461L49.8571 25.994ZM52.5616 22.0627C52.3547 22.0627 52.1562 22.0725 51.9663 22.0923C51.7762 22.1119 51.6094 22.1787 51.4659 22.2924C51.3223 22.4061 51.2072 22.5867 51.1206 22.8338C51.034 23.0811 50.9908 23.43 50.9908 23.8807C50.9908 24.1825 51.0108 24.4375 51.051 24.6453C51.0911 24.8531 51.146 25.0238 51.2157 25.1572C51.2853 25.2907 51.3687 25.3945 51.4659 25.4689C51.5629 25.5433 51.6696 25.5969 51.7857 25.6297C51.9018 25.6626 52.0253 25.6823 52.1562 25.6888C52.2871 25.6953 52.4222 25.6986 52.5616 25.6986C52.6967 25.6986 52.8297 25.6953 52.9606 25.6888C53.0916 25.6823 53.215 25.6626 53.3311 25.6297C53.4473 25.5969 53.555 25.5433 53.6542 25.4689C53.7534 25.3945 53.8379 25.2907 53.9076 25.1572C53.9773 25.0238 54.0321 24.8531 54.0723 24.6453C54.1123 24.4375 54.1325 24.1825 54.1325 23.8807C54.1325 23.43 54.088 23.0811 53.9994 22.8338C53.9107 22.5867 53.7935 22.4061 53.6479 22.2924C53.5022 22.1787 53.3354 22.1119 53.1475 22.0923C52.9596 22.0725 52.7643 22.0627 52.5616 22.0627ZM50.5221 23.8807C50.5221 23.4081 50.5759 23.0286 50.6836 22.742C50.7912 22.4553 50.937 22.2345 51.1206 22.0791C51.3043 21.9238 51.5197 21.8209 51.7667 21.7706C52.0138 21.7204 52.2786 21.6952 52.5616 21.6952C52.8445 21.6952 53.1095 21.7204 53.3565 21.7706C53.6035 21.8209 53.8188 21.9238 54.0025 22.0791C54.1863 22.2345 54.3319 22.4553 54.4396 22.742C54.5473 23.0286 54.6011 23.4081 54.6011 23.8807C54.6011 24.3532 54.5473 24.7328 54.4396 25.0193C54.3319 25.306 54.1863 25.527 54.0025 25.6823C53.8188 25.8375 53.6035 25.9404 53.3565 25.9907C53.1095 26.0411 52.8445 26.0662 52.5616 26.0662C52.2786 26.0662 52.0138 26.0411 51.7667 25.9907C51.5197 25.9404 51.3043 25.8375 51.1206 25.6823C50.937 25.527 50.7912 25.306 50.6836 25.0193C50.5759 24.7328 50.5221 24.3532 50.5221 23.8807ZM59.4402 25.994V22.3056H59.4212L57.9137 25.994H57.4197L55.9122 22.3056H55.8932V25.994H55.4625V21.7805H56.1466L57.4007 24.8126L57.6667 25.6068L57.9327 24.8126L59.1868 21.7805H59.8709V25.994H59.4402ZM63.7346 25.994V22.1677H61.3277V25.994H60.8781V21.7805H64.1844V25.994H63.7346ZM68.2254 25.994V22.1677H66.3252L66.1984 24.6749C66.1857 24.9635 66.1541 25.1977 66.1035 25.3771C66.0528 25.5565 65.9768 25.6953 65.8754 25.7939C65.7741 25.8923 65.6421 25.9579 65.4795 25.9907C65.317 26.0235 65.1174 26.0399 64.881 26.0399L64.9191 25.6921C65.0542 25.6921 65.1713 25.6855 65.2705 25.6725C65.3698 25.6593 65.4531 25.621 65.5208 25.5576C65.5883 25.4941 65.64 25.3957 65.6759 25.2622C65.7118 25.1287 65.7361 24.9417 65.7487 24.7011L65.8754 21.7805H68.675V25.994H68.2254ZM73.0455 25.7511C72.8681 25.8387 72.6453 25.9119 72.3772 25.971C72.1091 26.0301 71.8273 26.0597 71.5317 26.0597C71.2149 26.0597 70.9341 26.0345 70.6892 25.9841C70.4443 25.9338 70.2374 25.8321 70.0685 25.679C69.8996 25.5258 69.7708 25.3114 69.6822 25.0358C69.5934 24.7601 69.5491 24.3948 69.5491 23.9398C69.5491 23.4672 69.5956 23.0844 69.6885 22.7912C69.7814 22.4981 69.9123 22.2705 70.0811 22.1086C70.2501 21.9467 70.4517 21.8374 70.686 21.7805C70.9204 21.7235 71.179 21.6952 71.462 21.6952C71.766 21.6952 72.0363 21.7258 72.2727 21.7871C72.5092 21.8483 72.7087 21.9588 72.8713 22.1185C73.0339 22.2782 73.1573 22.4958 73.2418 22.7715C73.3262 23.0472 73.3685 23.4015 73.3685 23.8347V24.0053H70.0179C70.022 24.3685 70.0537 24.6595 70.1128 24.8783C70.1719 25.097 70.2649 25.2666 70.3915 25.3869C70.5182 25.5073 70.6829 25.5871 70.8856 25.6265C71.0883 25.6659 71.3353 25.6855 71.6267 25.6855C71.7532 25.6855 71.8768 25.6746 71.9972 25.6527C72.1175 25.6308 72.2294 25.6057 72.3329 25.5772C72.4363 25.5489 72.5313 25.5181 72.618 25.4853C72.7045 25.4526 72.7773 25.4251 72.8364 25.4034L73.0455 25.7511ZM72.8871 23.6247C72.8744 23.2878 72.8354 23.0165 72.7699 22.8109C72.7045 22.6053 72.6137 22.4466 72.4976 22.3351C72.3815 22.2235 72.2379 22.1502 72.0669 22.1152C71.8959 22.0801 71.6984 22.0627 71.4746 22.0627C71.2804 22.0627 71.0988 22.0747 70.9299 22.0987C70.761 22.1229 70.6122 22.1853 70.4834 22.2858C70.3546 22.3865 70.2501 22.5419 70.1699 22.7519C70.0896 22.9619 70.0411 23.2528 70.0241 23.6247H72.8871ZM77.6123 25.994C77.5067 26.0115 77.4085 26.017 77.3177 26.0105C77.2269 26.0039 77.1372 25.9765 77.0485 25.9283C76.9599 25.8803 76.868 25.8081 76.773 25.7118C76.678 25.6155 76.5714 25.4842 76.4531 25.318L75.5537 24.0775H74.5529V25.994H74.1032V21.7805H74.5529V23.7035H75.5537L76.9662 21.7805H77.5299C77.2723 22.1305 77.0137 22.4817 76.7539 22.8338C76.4942 23.1861 76.2335 23.5372 75.9718 23.8873L76.8712 25.108C76.9683 25.2392 77.0528 25.342 77.1246 25.4164C77.1963 25.4908 77.2628 25.5466 77.324 25.5838C77.3852 25.621 77.4444 25.6429 77.5014 25.6494C77.5584 25.656 77.6186 25.6549 77.6819 25.6461L77.6123 25.994ZM81.8053 25.7906C81.6279 25.878 81.4094 25.9481 81.1497 26.0006C80.89 26.0531 80.6124 26.0793 80.3169 26.0793C80.0043 26.0793 79.7224 26.0519 79.4712 25.9973C79.2199 25.9427 79.0057 25.8365 78.8283 25.679C78.6509 25.5214 78.5138 25.2994 78.4167 25.0128C78.3195 24.7262 78.2709 24.3511 78.2709 23.8873C78.2709 23.4234 78.3195 23.0483 78.4167 22.7617C78.5138 22.4751 78.6509 22.2531 78.8283 22.0955C79.0057 21.938 79.2199 21.8319 79.4712 21.7772C79.7224 21.7225 80.0043 21.6952 80.3169 21.6952C80.908 21.6952 81.383 21.7826 81.7419 21.9577L81.5329 22.3056C81.4104 22.2618 81.2437 22.2115 81.0325 22.1545C80.8214 22.0977 80.587 22.0693 80.3294 22.0693C80.1015 22.0693 79.8903 22.0857 79.6961 22.1185C79.5018 22.1513 79.334 22.2289 79.1925 22.3515C79.0511 22.4739 78.9403 22.6566 78.86 22.8995C78.7798 23.1423 78.7397 23.4716 78.7397 23.8873C78.7397 24.3073 78.7798 24.6387 78.86 24.8816C78.9403 25.1245 79.0511 25.306 79.1925 25.4263C79.334 25.5466 79.5018 25.6232 79.6961 25.656C79.8903 25.6888 80.1015 25.7052 80.3294 25.7052C80.4561 25.7052 80.5829 25.6953 80.7095 25.6757C80.8362 25.656 80.9545 25.633 81.0643 25.6068C81.174 25.5805 81.2753 25.5521 81.3682 25.5214C81.4611 25.4908 81.5372 25.4646 81.5963 25.4427L81.8053 25.7906Z" fill="#1B1B1B"/><path fill-rule="evenodd" clip-rule="evenodd" d="M19.0508 41.1473V29.0859H24.0368C24.8949 29.0859 25.6142 29.1266 26.1943 29.2081C26.7745 29.2895 27.2369 29.4397 27.5814 29.6589C27.9259 29.8781 28.1707 30.1881 28.3157 30.5889C28.4607 30.9897 28.5332 31.5093 28.5332 32.1483C28.5332 32.6241 28.503 33.0186 28.4426 33.3319C28.3821 33.6449 28.2886 33.9112 28.1616 34.1302C28.0347 34.3495 27.8775 34.5341 27.6902 34.6846C27.5029 34.8348 27.2883 34.9727 27.0465 35.0978C27.2883 35.2231 27.509 35.3577 27.7083 35.5019C27.9077 35.6457 28.077 35.8275 28.2161 36.0466C28.355 36.2657 28.4607 36.535 28.5332 36.8543C28.6059 37.1739 28.6421 37.5653 28.6421 38.0287C28.6421 38.6675 28.5666 39.1903 28.4154 39.5974C28.2642 40.0044 28.0136 40.3207 27.6631 40.5462C27.3126 40.7716 26.8471 40.9281 26.2669 41.0158C25.6867 41.1035 24.9674 41.1473 24.1092 41.1473H19.0508ZM24.3632 34.0833C24.6894 34.0833 24.9675 34.0677 25.1971 34.0363C25.4267 34.0049 25.6082 33.9299 25.741 33.8109C25.8741 33.6919 25.9708 33.5071 26.0312 33.2567C26.0917 33.0063 26.1219 32.6554 26.1219 32.2045C26.1219 31.9415 26.0856 31.738 26.0131 31.5939C25.9405 31.45 25.8257 31.3404 25.6686 31.2651C25.5114 31.19 25.2999 31.143 25.0339 31.1244C24.768 31.1055 24.4477 31.0961 24.073 31.0961H21.0814V34.0833H24.3632ZM24.1456 39.137C24.5204 39.137 24.8405 39.1308 25.1065 39.1183C25.3724 39.1057 25.59 39.0682 25.7593 39.0056C25.9284 38.9429 26.0493 38.8365 26.1219 38.6861C26.1943 38.5359 26.2307 38.3167 26.2307 38.0287C26.2307 37.5402 26.1974 37.1645 26.131 36.9014C26.0644 36.6385 25.9557 36.4473 25.8046 36.3283C25.6535 36.2094 25.4601 36.1406 25.2244 36.1216C24.9887 36.1029 24.7016 36.0935 24.3632 36.0935H21.0814V39.137H24.1456Z" fill="#1B1B1B"/><path fill-rule="evenodd" clip-rule="evenodd" d="M33.8032 35.9265C33.8396 36.6654 33.9272 37.2604 34.0661 37.7112C34.2052 38.1621 34.4137 38.5098 34.6917 38.754C34.9696 38.9982 35.3202 39.1642 35.7434 39.2519C36.1664 39.3394 36.6862 39.3833 37.3026 39.3833C37.6652 39.3833 38.0368 39.3489 38.4177 39.2801C38.7984 39.2112 39.1611 39.1297 39.5056 39.0359C39.85 38.9419 40.1643 38.8448 40.4484 38.7446C40.7324 38.6444 40.959 38.5629 41.1283 38.5003L41.7267 40.4355C41.4728 40.5606 41.1646 40.6797 40.8019 40.7925C40.4393 40.9051 40.0494 41.0054 39.6325 41.0929C39.2153 41.1807 38.7832 41.2526 38.3361 41.309C37.8888 41.3655 37.4537 41.3936 37.0306 41.3936C36.124 41.3936 35.3202 41.3185 34.6191 41.1682C33.9181 41.0179 33.3258 40.7205 32.8423 40.2756C32.3588 39.8311 31.9901 39.2112 31.7364 38.4158C31.4825 37.6206 31.3555 36.5714 31.3555 35.2689C31.3555 33.9162 31.4916 32.8203 31.7635 31.9812C32.0355 31.1421 32.4161 30.4908 32.9058 30.0273C33.3953 29.5639 33.9756 29.2508 34.6465 29.088C35.3173 28.9251 36.0576 28.8438 36.8674 28.8438C37.7378 28.8438 38.5082 28.9314 39.1791 29.1067C39.85 29.2821 40.4151 29.5982 40.8744 30.0555C41.3338 30.5127 41.6843 31.1358 41.9262 31.9248C42.1678 32.714 42.2886 33.7284 42.2886 34.9684V35.9265H33.8032ZM39.8229 33.8975C39.7865 33.2462 39.702 32.7202 39.5689 32.3193C39.4361 31.9187 39.2487 31.6085 39.007 31.3893C38.7651 31.1702 38.4689 31.0229 38.1185 30.9478C37.768 30.8727 37.3509 30.8351 36.8674 30.8351C36.4443 30.8351 36.0546 30.8572 35.6979 30.9008C35.3414 30.9447 35.0272 31.0668 34.7551 31.2672C34.4832 31.4677 34.2656 31.7745 34.1024 32.1878C33.9394 32.6012 33.8396 33.1711 33.8032 33.8975H39.8229Z" fill="#1B1B1B"/><path fill-rule="evenodd" clip-rule="evenodd" d="M46.9898 41.1473V31.0961H43.418L43.5993 29.0859H53.1906L53.0094 31.0961H49.3831V41.1473H46.9898Z" fill="#1B1B1B"/><path fill-rule="evenodd" clip-rule="evenodd" d="M61.7334 41.1473V31.1338H58.2885L57.9258 37.3711C57.8896 38.1976 57.7839 38.8678 57.6086 39.3813C57.4334 39.8949 57.1614 40.2925 56.7927 40.5743C56.4239 40.856 55.9495 41.0441 55.3694 41.1379C54.7892 41.2319 54.0821 41.2789 53.248 41.2789L53.3567 39.3437C53.7195 39.3437 54.0307 39.3282 54.2907 39.2967C54.5505 39.2655 54.7709 39.1903 54.9524 39.0714C55.1337 38.9524 55.2728 38.7644 55.3694 38.5077C55.4661 38.2509 55.5265 37.8971 55.5507 37.4463L56.0947 29.0859H64.1086V41.1473H61.7334Z" fill="#1B1B1B"/><path fill-rule="evenodd" clip-rule="evenodd" d="M77.752 41.1473V29.0859H80.1452V41.1473H77.752Z" fill="#1B1B1B"/><path fill-rule="evenodd" clip-rule="evenodd" d="M67.1113 41.1473V29.0859H69.5046V33.4257H71.8071C72.6654 33.4257 73.3846 33.4727 73.9648 33.5667C74.5451 33.6606 75.0105 33.8421 75.361 34.1115C75.7114 34.3808 75.9624 34.7692 76.1134 35.2763C76.2645 35.7836 76.34 36.4505 76.34 37.2771C76.34 38.1039 76.2645 38.7706 76.1134 39.278C75.9624 39.7851 75.7114 40.1767 75.361 40.4522C75.0105 40.7277 74.5451 40.9125 73.9648 41.0063C73.3846 41.1003 72.6654 41.1473 71.8071 41.1473H67.1113ZM73.8922 37.2207C73.8922 36.7949 73.856 36.463 73.7835 36.2251C73.711 35.9871 73.5963 35.8086 73.4391 35.6896C73.282 35.5707 73.0704 35.4987 72.8045 35.4735C72.5386 35.4486 72.2182 35.436 71.8434 35.436H69.5046V39.137H71.8434C72.2182 39.137 72.5386 39.1247 72.8045 39.0995C73.0704 39.0745 73.282 39.0025 73.4391 38.8835C73.5963 38.7644 73.711 38.5829 73.7835 38.3387C73.856 38.0944 73.8922 37.7594 73.8922 37.3336V37.2207Z" fill="#1B1B1B"/><path fill-rule="evenodd" clip-rule="evenodd" d="M83.2383 41.1473V29.0859H85.541V37.0141L90.2372 29.0859H92.7754V41.1473H90.4546V33.1814L85.7586 41.1473H83.2383Z" fill="#1B1B1B"/><path fill-rule="evenodd" clip-rule="evenodd" d="M16.1783 40.2051C15.8699 40.3574 15.5246 40.4947 15.1429 40.6171C14.7619 40.7391 14.3458 40.8459 13.8957 40.9369C13.4464 41.0277 12.979 41.096 12.495 41.1417C12.0117 41.1874 11.5136 41.2104 11.0022 41.2104C10.462 41.2104 9.94606 41.1863 9.45549 41.1389C8.96507 41.0915 8.50099 41.0199 8.06458 40.9251C7.62481 40.8294 7.21732 40.6886 6.84263 40.5033V40.503C6.46706 40.317 6.12357 40.0857 5.81313 39.81C5.50183 39.5337 5.22596 39.2006 4.98523 38.8114V38.8113C4.74535 38.4229 4.54041 37.9782 4.3709 37.4782C4.20163 36.9785 4.07459 36.4017 3.99009 35.7487C3.90563 35.0964 3.86328 34.3677 3.86328 33.5632C3.86328 32.7588 3.90563 32.03 3.99009 31.3778C4.07459 30.7247 4.20163 30.148 4.3709 29.6482C4.54041 29.1481 4.74535 28.7035 4.98523 28.3151V28.315C5.22596 27.9258 5.50183 27.5927 5.81313 27.3163C6.12357 27.0407 6.46706 26.8094 6.84263 26.6234V26.6231C7.21732 26.4377 7.62481 26.2969 8.06458 26.2013C8.50099 26.1065 8.96507 26.0349 9.45549 25.9874C9.94606 25.9401 10.462 25.916 11.0022 25.916C13.0564 25.916 14.7088 26.221 15.9589 26.8306L16.0076 26.8541L15.9909 26.9071L15.3468 28.9265L15.328 28.9851L15.2712 28.9669C15.0609 28.8994 14.8092 28.8222 14.5159 28.7358C14.2317 28.6519 13.9069 28.5587 13.5421 28.4567C13.1798 28.3555 12.7972 28.2792 12.3949 28.2287C11.9923 28.1782 11.5686 28.1527 11.1252 28.1527C10.8279 28.1527 10.5408 28.1641 10.2648 28.1865C9.98809 28.2091 9.72262 28.2431 9.47004 28.2878C9.17766 28.3396 8.75669 28.4402 8.38313 28.5821H8.38278C8.11317 28.6843 7.86793 28.8079 7.71695 28.9492C7.53583 29.1185 7.37346 29.3303 7.23055 29.5839C7.08641 29.8398 6.96211 30.1378 6.85784 30.4768C6.74809 30.8338 6.64521 31.3459 6.57214 31.9213C6.5057 32.4447 6.46366 33.0213 6.46366 33.5813C6.46366 34.1374 6.50778 34.7062 6.57607 35.2239C6.65397 35.8146 6.76361 36.3388 6.87532 36.7023C6.97982 37.0423 7.10417 37.3392 7.24762 37.5923C7.39018 37.8434 7.55258 38.0523 7.73401 38.2181L7.73421 38.218C7.91302 38.3815 8.22304 38.5124 8.55085 38.6132H8.55121C8.88397 38.7158 9.23437 38.7876 9.48757 38.8322C9.74022 38.8769 10.0056 38.911 10.2823 38.9335C10.5583 38.9561 10.8454 38.9674 11.1427 38.9674C11.3603 38.9674 11.5779 38.959 11.7958 38.9421C12.0129 38.9252 12.2309 38.8997 12.4487 38.866H12.4491C12.6672 38.8322 12.8775 38.7955 13.0789 38.7565C13.2833 38.7167 13.4813 38.6738 13.6714 38.6286C13.8595 38.5839 14.0413 38.5364 14.2161 38.4874C14.393 38.4379 14.5608 38.3867 14.7186 38.3348C14.8837 38.2804 15.0296 38.2311 15.1554 38.1879V38.1877C15.2803 38.1445 15.3967 38.1032 15.5053 38.063L15.5641 38.0409L15.5835 38.1032L16.21 40.129L16.2261 40.1815L16.1783 40.2051Z" fill="#1B1B1B"/><path fill-rule="evenodd" clip-rule="evenodd" d="M87.2472 28.2947C87.0982 27.0813 86.3382 26.1833 85.668 25.9077C85.9176 25.6077 86.0223 25.4527 86.267 25.1463C86.8808 25.2572 87.4979 25.9129 87.9216 26.6854C88.5883 25.6941 89.6259 24.8626 90.6162 24.6777C90.8878 24.9588 91.1601 25.2572 91.4359 25.5316C89.6729 25.9602 88.8359 27 88.2366 28.2947L87.2472 28.2947Z" fill="#1B1B1B"/><defs><linearGradient id="paint0_linear_1634_4314" x1="39.2575" y1="47.334" x2="39.2575" y2="62.3175" gradientUnits="userSpaceOnUse"><stop stop-color="#71CEF8"/><stop offset="1" stop-color="#48B8EA"/></linearGradient><linearGradient id="paint1_linear_1634_4314" x1="45.7475" y1="46.8001" x2="57.0637" y2="55.8051" gradientUnits="userSpaceOnUse"><stop stop-color="#7CC816"/><stop offset="1" stop-color="#83E309"/></linearGradient><linearGradient id="paint2_linear_1634_4314" x1="34.749" y1="17.2" x2="84.3707" y2="20.5541" gradientUnits="userSpaceOnUse"><stop stop-color="#FECC00"/><stop offset="0.515625" stop-color="#FFE200"/><stop offset="1" stop-color="#FECC00"/></linearGradient></defs></svg>