<svg width="40" height="30" viewBox="0 0 40 30" fill="none" xmlns="http://www.w3.org/2000/svg">
<path d="M38 0H2C1.60218 0 1.22064 0.158036 0.93934 0.43934C0.658035 0.720645 0.5 1.10218 0.5 1.5V28.5C0.5 28.8978 0.658035 29.2794 0.93934 29.5607C1.22064 29.842 1.60218 30 2 30H38C38.3978 30 38.7794 29.842 39.0607 29.5607C39.342 29.2794 39.5 28.8978 39.5 28.5V1.5C39.5 1.10218 39.342 0.720645 39.0607 0.43934C38.7794 0.158036 38.3978 0 38 0ZM12.5 18V12H27.5V18H12.5ZM3.5 18V12H9.5V18H3.5ZM30.5 12H36.5V18H30.5V12ZM36.5 9H21.5V3H36.5V9ZM18.5 3V9H3.5V3H18.5ZM3.5 21H18.5V27H3.5V21ZM21.5 27V21H36.5V27H21.5Z" fill="#C0C0C0"/>
</svg>
