<svg width="37" height="46" viewBox="0 0 37 46" fill="none" xmlns="http://www.w3.org/2000/svg">
<path d="M23.2644 14.1013C23.0391 13.7737 22.953 13.3702 23.0251 12.9792C23.0972 12.5883 23.3215 12.2419 23.6488 12.0163C25.5988 10.67 28.6512 10.67 30.6012 12.0163C31.5387 12.6669 33.2037 12.6669 34.1488 12.0163C34.4762 11.8082 34.8716 11.7351 35.2518 11.8123C35.632 11.8895 35.9675 12.1111 36.1878 12.4304C36.4082 12.7498 36.4962 13.1421 36.4334 13.5249C36.3707 13.9078 36.162 14.2515 35.8512 14.4838C34.8115 15.1426 33.6059 15.4923 32.375 15.4923C31.1441 15.4923 29.9385 15.1426 28.8987 14.4838C27.9612 13.8331 26.2962 13.8331 25.3512 14.4838C25.1891 14.5957 25.0065 14.6746 24.8139 14.716C24.6213 14.7573 24.4224 14.7603 24.2286 14.7248C24.0348 14.6893 23.8499 14.6159 23.6844 14.5089C23.519 14.4019 23.3763 14.2634 23.2644 14.1013ZM34.1488 18.0163C33.2113 18.6669 31.5462 18.6669 30.6012 18.0163C28.6512 16.67 25.5988 16.67 23.6488 18.0163C23.4785 18.1245 23.3317 18.2659 23.2174 18.4321C23.103 18.5984 23.0234 18.786 22.9832 18.9837C22.943 19.1814 22.9432 19.3852 22.9836 19.5829C23.0241 19.7806 23.104 19.9681 23.2185 20.1342C23.3331 20.3002 23.4801 20.4415 23.6505 20.5495C23.821 20.6574 24.0114 20.7299 24.2106 20.7625C24.4097 20.7952 24.6133 20.7873 24.8093 20.7394C25.0053 20.6915 25.1896 20.6046 25.3512 20.4838C26.2887 19.8331 27.9537 19.8331 28.8987 20.4838C29.9385 21.1426 31.1441 21.4923 32.375 21.4923C33.6059 21.4923 34.8115 21.1426 35.8512 20.4838C36.162 20.2515 36.3707 19.9078 36.4334 19.5249C36.4962 19.1421 36.4082 18.7498 36.1878 18.4304C35.9675 18.1111 35.632 17.8895 35.2518 17.8123C34.8716 17.7351 34.4762 17.8082 34.1488 18.0163ZM18.5 33.5C18.4994 34.6221 18.1842 35.7215 17.5902 36.6734C16.9962 37.6254 16.1471 38.3916 15.1394 38.8853C14.1317 39.3789 13.0059 39.58 11.8896 39.4658C10.7734 39.3517 9.71148 38.9268 8.82457 38.2395C7.93767 37.5521 7.26128 36.6298 6.87222 35.5774C6.48316 34.5249 6.39702 33.3844 6.62359 32.2855C6.85015 31.1865 7.38034 30.1731 8.15394 29.3603C8.92755 28.5476 9.91356 27.968 11 27.6875V8C11 7.60218 11.158 7.22065 11.4393 6.93934C11.7206 6.65804 12.1022 6.5 12.5 6.5C12.8978 6.5 13.2794 6.65804 13.5607 6.93934C13.842 7.22065 14 7.60218 14 8V27.6875C15.2875 28.0219 16.4277 28.7739 17.242 29.8258C18.0563 30.8776 18.4987 32.1698 18.5 33.5ZM15.5 33.5C15.5 32.9067 15.3241 32.3266 14.9944 31.8333C14.6648 31.3399 14.1962 30.9554 13.6481 30.7284C13.0999 30.5013 12.4967 30.4419 11.9147 30.5576C11.3328 30.6734 10.7982 30.9591 10.3787 31.3787C9.95912 31.7982 9.6734 32.3328 9.55764 32.9147C9.44189 33.4967 9.5013 34.0999 9.72836 34.6481C9.95542 35.1962 10.3399 35.6648 10.8333 35.9944C11.3266 36.3241 11.9067 36.5 12.5 36.5C13.2956 36.5 14.0587 36.1839 14.6213 35.6213C15.1839 35.0587 15.5 34.2957 15.5 33.5ZM24.5 33.5C24.4987 35.5291 23.983 37.5247 23.0009 39.3003C22.0189 41.0759 20.6026 42.5735 18.8845 43.6531C17.1665 44.7327 15.2027 45.3589 13.1769 45.4734C11.151 45.5878 9.12919 45.1867 7.30047 44.3075C5.47175 43.4283 3.89583 42.0998 2.72004 40.4461C1.54425 38.7924 0.806999 36.8675 0.577205 34.8515C0.347411 32.8355 0.632581 30.7941 1.40605 28.9182C2.17953 27.0423 3.41604 25.3932 5 24.125V8C5 6.01088 5.79018 4.10322 7.1967 2.6967C8.60322 1.29018 10.5109 0.5 12.5 0.5C14.4891 0.5 16.3968 1.29018 17.8033 2.6967C19.2098 4.10322 20 6.01088 20 8V24.125C21.4044 25.2508 22.5379 26.6778 23.3168 28.3004C24.0957 29.9231 24.5 31.7001 24.5 33.5ZM21.5 33.5C21.4988 32.049 21.1474 30.6197 20.4756 29.3335C19.8038 28.0474 18.8315 26.9424 17.6413 26.1125C17.4422 25.9735 17.2799 25.7883 17.1682 25.5728C17.0565 25.3572 16.9988 25.1178 17 24.875V8C17 6.80653 16.5259 5.66193 15.682 4.81802C14.8381 3.97411 13.6935 3.5 12.5 3.5C11.3065 3.5 10.1619 3.97411 9.31802 4.81802C8.47411 5.66193 8 6.80653 8 8V24.875C8.00002 25.1165 7.94174 25.3544 7.83009 25.5686C7.71845 25.7827 7.55676 25.9667 7.35875 26.105C6.08877 26.9889 5.06812 28.1853 4.39533 29.5786C3.72254 30.972 3.42035 32.5153 3.51792 34.0595C3.61548 35.6037 4.10952 37.0967 4.95233 38.3943C5.79515 39.6919 6.95826 40.7503 8.32939 41.4673C9.70053 42.1843 11.2334 42.5358 12.7799 42.4876C14.3264 42.4395 15.8345 41.9935 17.1584 41.1926C18.4823 40.3917 19.5773 39.2631 20.3378 37.9156C21.0984 36.5681 21.4986 35.0473 21.5 33.5Z" fill="#C0C0C0"/>
</svg>
