<svg width="36" height="36" viewBox="0 0 36 36" fill="none" xmlns="http://www.w3.org/2000/svg">
<path d="M33 0H3C2.20435 0 1.44129 0.31607 0.87868 0.87868C0.31607 1.44129 0 2.20435 0 3V33C0 33.7957 0.31607 34.5587 0.87868 35.1213C1.44129 35.6839 2.20435 36 3 36H33C33.7957 36 34.5587 35.6839 35.1213 35.1213C35.6839 34.5587 36 33.7957 36 33V3C36 2.20435 35.6839 1.44129 35.1213 0.87868C34.5587 0.31607 33.7957 0 33 0ZM33 3V22.5H27.6188C27.225 22.499 26.8349 22.5762 26.4712 22.7272C26.1075 22.8781 25.7773 23.0998 25.5 23.3794L21.8794 27H14.1206L10.5 23.3794C10.2224 23.0996 9.89202 22.8778 9.52797 22.7268C9.16391 22.5758 8.77349 22.4987 8.37938 22.5H3V3H33ZM33 33H3V25.5H8.37938L12 29.1206C12.2776 29.4004 12.608 29.6222 12.972 29.7732C13.3361 29.9242 13.7265 30.0013 14.1206 30H21.8794C22.2735 30.0013 22.6639 29.9242 23.028 29.7732C23.392 29.6222 23.7224 29.4004 24 29.1206L27.6206 25.5H33V33Z" fill="#C0C0C0"/>
</svg>
