<svg width="40" height="46" viewBox="0 0 40 46" fill="none" xmlns="http://www.w3.org/2000/svg">
<path d="M38 9.5H29V2C29 1.60218 28.842 1.22064 28.5607 0.93934C28.2794 0.658035 27.8978 0.5 27.5 0.5C27.1022 0.5 26.7206 0.658035 26.4393 0.93934C26.158 1.22064 26 1.60218 26 2V9.5H14V2C14 1.60218 13.842 1.22064 13.5607 0.93934C13.2794 0.658035 12.8978 0.5 12.5 0.5C12.1022 0.5 11.7206 0.658035 11.4393 0.93934C11.158 1.22064 11 1.60218 11 2V9.5H2.10312C0.9275 9.5 0.5 10.3962 0.5 11C0.5 11.3978 0.658035 11.7794 0.93934 12.0607C1.22064 12.342 1.60218 12.5 2 12.5H5V29C5 30.9891 5.79018 32.8968 7.1967 34.3033C8.60322 35.7098 10.5109 36.5 12.5 36.5H18.5V44C18.5 44.3978 18.658 44.7794 18.9393 45.0607C19.2206 45.342 19.6022 45.5 20 45.5C20.3978 45.5 20.7794 45.342 21.0607 45.0607C21.342 44.7794 21.5 44.3978 21.5 44V36.5H27.5C29.4891 36.5 31.3968 35.7098 32.8033 34.3033C34.2098 32.8968 35 30.9891 35 29V12.5H38C38.3978 12.5 38.7794 12.342 39.0607 12.0607C39.342 11.7794 39.5 11.3978 39.5 11C39.5 10.6022 39.342 10.2206 39.0607 9.93934C38.7794 9.65804 38.3978 9.5 38 9.5ZM27.5 33.5H12.5C11.3065 33.5 10.1619 33.0259 9.31802 32.182C8.47411 31.3381 8 30.1935 8 29V12.5H32V29C32 30.1935 31.5259 31.3381 30.682 32.182C29.8381 33.0259 28.6935 33.5 27.5 33.5ZM24.2337 22.145C24.3718 22.3444 24.4594 22.5743 24.4891 22.8149C24.5188 23.0556 24.4898 23.2999 24.4044 23.5269L22.1544 29.5269C22.0146 29.8998 21.7325 30.202 21.3699 30.3669C21.0074 30.5318 20.5942 30.546 20.2212 30.4062C19.8483 30.2665 19.5461 29.9843 19.3812 29.6218C19.2163 29.2593 19.2021 28.8461 19.3419 28.4731L20.8419 24.5H17C16.7576 24.5 16.5188 24.4412 16.3041 24.3288C16.0894 24.2163 15.9051 24.0535 15.7671 23.8543C15.629 23.6551 15.5413 23.4253 15.5115 23.1848C15.4816 22.9443 15.5105 22.7001 15.5956 22.4731L17.8456 16.4731C17.9854 16.1002 18.2675 15.798 18.6301 15.6331C18.9926 15.4682 19.4058 15.454 19.7787 15.5938C20.1517 15.7335 20.4539 16.0157 20.6188 16.3782C20.7837 16.7407 20.7979 17.1539 20.6581 17.5269L19.1581 21.5H23C23.2425 21.4998 23.4814 21.5584 23.6962 21.6707C23.9111 21.783 24.0955 21.9458 24.2337 22.145Z" fill="#C0C0C0"/>
</svg>
