<svg width="46" height="36" viewBox="0 0 46 36" fill="none" xmlns="http://www.w3.org/2000/svg">
<path d="M42.5 7.5H39.5V3C39.5 2.20435 39.1839 1.44129 38.6213 0.87868C38.0587 0.31607 37.2957 0 36.5 0H8C7.20435 0 6.44129 0.31607 5.87868 0.87868C5.31607 1.44129 5 2.20435 5 3V7.5H2C1.60218 7.5 1.22064 7.65804 0.93934 7.93934C0.658035 8.22064 0.5 8.60218 0.5 9C0.5 9.39782 0.658035 9.77936 0.93934 10.0607C1.22064 10.342 1.60218 10.5 2 10.5H5V15C5 15.7956 5.31607 16.5587 5.87868 17.1213C6.44129 17.6839 7.20435 18 8 18H36.5C37.2957 18 38.0587 17.6839 38.6213 17.1213C39.1839 16.5587 39.5 15.7956 39.5 15V10.5H42.5V19.875L23.675 25.2469C23.0505 25.4277 22.5012 25.8057 22.1092 26.3245C21.7172 26.8432 21.5035 27.4748 21.5 28.125V34.5C21.5 34.8978 21.658 35.2794 21.9393 35.5607C22.2206 35.842 22.6022 36 23 36C23.3978 36 23.7794 35.842 24.0607 35.5607C24.342 35.2794 24.5 34.8978 24.5 34.5V28.125L43.325 22.7475C43.9486 22.5669 44.4972 22.1898 44.8891 21.6722C45.2811 21.1546 45.4953 20.5242 45.5 19.875V10.5C45.5 9.70435 45.1839 8.94129 44.6213 8.37868C44.0587 7.81607 43.2957 7.5 42.5 7.5ZM36.5 15H8V3H36.5V15Z" fill="#C0C0C0"/>
</svg>
