<svg width="46" height="35" viewBox="0 0 46 35" fill="none" xmlns="http://www.w3.org/2000/svg">
<path d="M1.24979 14.8118L22.2498 26.8118C22.4765 26.9414 22.7331 27.0095 22.9942 27.0095C23.2553 27.0095 23.5119 26.9414 23.7385 26.8118L44.7385 14.8118C44.9685 14.6807 45.1597 14.4911 45.2926 14.2622C45.4256 14.0334 45.4957 13.7734 45.4957 13.5087C45.4957 13.244 45.4256 12.984 45.2926 12.7551C45.1597 12.5262 44.9685 12.3366 44.7385 12.2055L23.7385 0.205543C23.5119 0.0759692 23.2553 0.0078125 22.9942 0.0078125C22.7331 0.0078125 22.4765 0.0759692 22.2498 0.205543L1.24979 12.2055C1.01984 12.3366 0.828665 12.5262 0.695689 12.7551C0.562713 12.984 0.492669 13.244 0.492669 13.5087C0.492669 13.7734 0.562713 14.0334 0.695689 14.2622C0.828665 14.4911 1.01984 14.6807 1.24979 14.8118ZM22.9998 3.22617L40.9754 13.4993L22.9998 23.7724L5.02417 13.4993L22.9998 3.22617ZM45.301 20.2493C45.4016 20.4206 45.4671 20.6101 45.4937 20.8069C45.5204 21.0037 45.5077 21.2039 45.4565 21.3957C45.4052 21.5876 45.3163 21.7674 45.195 21.9246C45.0737 22.0819 44.9224 22.2135 44.7498 22.3118L23.7498 34.3118C23.5231 34.4414 23.2665 34.5095 23.0054 34.5095C22.7443 34.5095 22.4877 34.4414 22.261 34.3118L1.24979 22.3118C1.07805 22.2133 0.927385 22.0819 0.806405 21.9252C0.685425 21.7685 0.596497 21.5895 0.5447 21.3984C0.492902 21.2073 0.479249 21.0079 0.504519 20.8116C0.529789 20.6152 0.593489 20.4257 0.69198 20.254C0.790472 20.0822 0.921826 19.9316 1.07854 19.8106C1.23526 19.6896 1.41427 19.6007 1.60536 19.5489C1.99127 19.4443 2.40294 19.4973 2.74979 19.6962L22.9998 31.2724L43.2498 19.6962C43.4207 19.5975 43.6094 19.5335 43.8051 19.5079C44.0008 19.4823 44.1997 19.4956 44.3902 19.547C44.5808 19.5984 44.7593 19.6869 44.9156 19.8074C45.0719 19.9279 45.2029 20.0781 45.301 20.2493Z" fill="#C0C0C0"/>
</svg>
