<svg width="41" height="41" viewBox="0 0 41 41" fill="none" xmlns="http://www.w3.org/2000/svg">
<path d="M26 0C23.6325 0.0021229 21.299 0.564144 19.1901 1.64018C17.0812 2.71621 15.2567 4.27574 13.8655 6.19144C12.4744 8.10715 11.556 10.3247 11.1854 12.6631C10.8148 15.0014 11.0025 17.3943 11.7331 19.6462L0.93875 30.4387C0.799499 30.5782 0.689078 30.7436 0.613796 30.9257C0.538514 31.1078 0.499846 31.303 0.5 31.5V39C0.5 39.3978 0.658036 39.7794 0.93934 40.0607C1.22064 40.342 1.60218 40.5 2 40.5H9.5C9.89783 40.5 10.2794 40.342 10.5607 40.0607C10.842 39.7794 11 39.3978 11 39V36H14C14.3978 36 14.7794 35.842 15.0607 35.5607C15.342 35.2794 15.5 34.8978 15.5 34.5V31.5H18.5C18.697 31.5002 18.8922 31.4615 19.0743 31.3862C19.2564 31.3109 19.4218 31.2005 19.5613 31.0613L21.3538 29.2669C23.4154 29.9362 25.5975 30.1508 27.75 29.8959C29.9025 29.641 31.9742 28.9225 33.8224 27.7901C35.6706 26.6577 37.2515 25.1382 38.4561 23.3362C39.6607 21.5342 40.4604 19.4926 40.8003 17.3519C41.1401 15.2111 41.012 13.0222 40.4247 10.9357C39.8374 8.84925 38.8049 6.91486 37.3983 5.26572C35.9916 3.61659 34.2443 2.2919 32.2766 1.38287C30.3089 0.473834 28.1675 0.00204883 26 0ZM26 27C24.4816 27.0026 22.9766 26.7156 21.5656 26.1544C21.2896 26.0346 20.984 26.0006 20.6884 26.0567C20.3928 26.1129 20.1209 26.2567 19.9081 26.4694L17.8794 28.5H14C13.6022 28.5 13.2206 28.658 12.9393 28.9393C12.658 29.2206 12.5 29.6022 12.5 30V33H9.5C9.10218 33 8.72064 33.158 8.43934 33.4393C8.15804 33.7206 8 34.1022 8 34.5V37.5H3.5V32.1206L14.5306 21.0919C14.7433 20.8791 14.8871 20.6072 14.9432 20.3116C14.9994 20.016 14.9654 19.7104 14.8456 19.4344C13.897 17.0491 13.7384 14.4225 14.3929 11.9403C15.0474 9.45821 16.4806 7.25136 18.482 5.64395C20.4834 4.03653 22.9475 3.11327 25.5124 3.00976C28.0773 2.90625 30.6078 3.62796 32.7322 5.06888C34.8566 6.5098 36.463 8.59398 37.3154 11.0153C38.1677 13.4366 38.2212 16.0675 37.4679 18.5215C36.7146 20.9754 35.1943 23.1232 33.1302 24.6492C31.0661 26.1753 28.567 26.9992 26 27ZM32 11.25C32 11.695 31.868 12.13 31.6208 12.5C31.3736 12.87 31.0222 13.1584 30.611 13.3287C30.1999 13.499 29.7475 13.5436 29.311 13.4568C28.8746 13.37 28.4737 13.1557 28.159 12.841C27.8443 12.5263 27.63 12.1254 27.5432 11.689C27.4564 11.2525 27.501 10.8001 27.6713 10.389C27.8416 9.97783 28.13 9.62643 28.5 9.37919C28.87 9.13196 29.305 9 29.75 9C30.3467 9 30.919 9.23705 31.341 9.65901C31.7629 10.081 32 10.6533 32 11.25Z" fill="#C0C0C0"/>
</svg>
