<svg width="40" height="39" viewBox="0 0 40 39" fill="none" xmlns="http://www.w3.org/2000/svg">
<path d="M11.0002 30.7501C11.0002 31.1952 10.8683 31.6302 10.621 32.0002C10.3738 32.3702 10.0224 32.6586 9.61127 32.8289C9.20013 32.9992 8.74773 33.0437 8.31127 32.9569C7.87482 32.8701 7.47391 32.6558 7.15924 32.3411C6.84457 32.0265 6.63028 31.6256 6.54346 31.1891C6.45664 30.7526 6.5012 30.3002 6.6715 29.8891C6.8418 29.478 7.13018 29.1266 7.5002 28.8793C7.87021 28.6321 8.30522 28.5001 8.75023 28.5001C9.34697 28.5001 9.91926 28.7372 10.3412 29.1592C10.7632 29.5811 11.0002 30.1534 11.0002 30.7501ZM39.5002 26.2858V36.0001C39.5002 36.7958 39.1842 37.5589 38.6216 38.1215C38.0589 38.6841 37.2959 39.0001 36.5002 39.0001H8.75023C8.25124 39.0005 7.75315 38.9578 7.26148 38.8727C5.11653 38.4813 3.21372 37.2568 1.96891 35.4667C0.724111 33.6766 0.238549 31.4665 0.618353 29.3195L5.30585 2.48265C5.37248 2.09487 5.51502 1.72406 5.7253 1.39149C5.93558 1.05893 6.20945 0.771159 6.53121 0.544693C6.85296 0.318226 7.21627 0.15752 7.60028 0.0717962C7.9843 -0.0139278 8.38146 -0.0229833 8.76898 0.0451498L19.0327 1.87515C19.8137 2.01589 20.5071 2.46031 20.9611 3.11113C21.4151 3.76194 21.5928 4.56613 21.4552 5.34765L19.1902 18.2851L31.9046 13.6877C32.6499 13.4184 33.4715 13.4551 34.1899 13.7895C34.9083 14.1239 35.4652 14.729 35.739 15.4726L39.3127 25.2545C39.4275 25.5867 39.4908 25.9345 39.5002 26.2858ZM13.8127 31.6633L18.5002 4.8264L8.27398 3.00015L3.58648 29.8314C3.34175 31.1961 3.64682 32.6023 4.4351 33.7429C5.22338 34.8835 6.43086 35.666 7.79398 35.9195C8.46127 36.0392 9.14569 36.0251 9.80747 35.878C10.4693 35.7309 11.0952 35.4537 11.649 35.0626C12.2169 34.6677 12.7006 34.1637 13.0721 33.5802C13.4435 32.9966 13.6953 32.345 13.8127 31.6633ZM16.3965 33.5626L36.5002 26.2708L32.9227 16.5002L18.594 21.6939L16.7602 32.1789C16.6787 32.6497 16.557 33.1126 16.3965 33.5626ZM36.5002 29.4601L18.4515 36.0001H36.5002V29.4601Z" fill="#C0C0C0"/>
</svg>
