<svg width="47" height="41" viewBox="0 0 47 41" fill="none" xmlns="http://www.w3.org/2000/svg">
<path d="M11 38.25C11 38.695 10.868 39.13 10.6208 39.5C10.3736 39.8701 10.0222 40.1584 9.61104 40.3287C9.1999 40.499 8.74751 40.5436 8.31105 40.4568C7.87459 40.37 7.47368 40.1557 7.15901 39.841C6.84434 39.5263 6.63005 39.1254 6.54323 38.689C6.45642 38.2525 6.50097 37.8001 6.67127 37.389C6.84157 36.9778 7.12996 36.6264 7.49997 36.3792C7.86998 36.132 8.30499 36 8.75 36C9.34674 36 9.91903 36.2371 10.341 36.659C10.7629 37.081 11 37.6533 11 38.25ZM14.75 30C14.305 30 13.87 30.132 13.5 30.3792C13.13 30.6264 12.8416 30.9778 12.6713 31.389C12.501 31.8001 12.4564 32.2525 12.5432 32.689C12.6301 33.1254 12.8443 33.5263 13.159 33.841C13.4737 34.1557 13.8746 34.37 14.311 34.4568C14.7475 34.5436 15.1999 34.499 15.611 34.3287C16.0222 34.1584 16.3736 33.8701 16.6208 33.5C16.868 33.13 17 32.695 17 32.25C17 31.6533 16.7629 31.081 16.341 30.659C15.919 30.2371 15.3467 30 14.75 30ZM2.75 30C2.30499 30 1.86998 30.132 1.49997 30.3792C1.12996 30.6264 0.841569 30.9778 0.671272 31.389C0.500975 31.8001 0.456417 32.2525 0.543234 32.689C0.630051 33.1254 0.844343 33.5263 1.15901 33.841C1.47368 34.1557 1.87459 34.37 2.31105 34.4568C2.74751 34.5436 3.19991 34.499 3.61104 34.3287C4.02217 34.1584 4.37357 33.8701 4.62081 33.5C4.86804 33.13 5 32.695 5 32.25C5 31.6533 4.76295 31.081 4.34099 30.659C3.91903 30.2371 3.34674 30 2.75 30ZM8.75 24C8.30499 24 7.86998 24.132 7.49997 24.3792C7.12996 24.6264 6.84157 24.9778 6.67127 25.389C6.50097 25.8001 6.45642 26.2525 6.54323 26.689C6.63005 27.1254 6.84434 27.5263 7.15901 27.841C7.47368 28.1557 7.87459 28.37 8.31105 28.4568C8.74751 28.5436 9.1999 28.499 9.61104 28.3287C10.0222 28.1584 10.3736 27.8701 10.6208 27.5C10.868 27.13 11 26.695 11 26.25C11 25.6533 10.7629 25.081 10.341 24.659C9.91903 24.2371 9.34674 24 8.75 24ZM47 1.50002C47 1.89784 46.842 2.27937 46.5607 2.56068C46.2794 2.84198 45.8978 3.00002 45.5 3.00002H40.1206L34.8988 8.22377L30.8375 31.9969C30.7461 32.54 30.5069 33.0475 30.1462 33.4637C29.7855 33.8799 29.3172 34.1888 28.7926 34.3565C28.268 34.5242 27.7073 34.5443 27.1721 34.4145C26.6368 34.2847 26.1476 34.01 25.7581 33.6206L7.38313 15.2456C6.99313 14.8558 6.71812 14.366 6.58831 13.8301C6.45849 13.2942 6.47889 12.7329 6.64726 12.2078C6.81564 11.6827 7.12547 11.2142 7.54273 10.8537C7.95999 10.4932 8.46854 10.2547 9.0125 10.1644L32.7762 6.10127L38 0.87939C38.2776 0.599602 38.608 0.377778 38.972 0.226813C39.3361 0.0758491 39.7265 -0.00124395 40.1206 1.5178e-05H45.5C45.8978 1.5178e-05 46.2794 0.158051 46.5607 0.439355C46.842 0.72066 47 1.10219 47 1.50002ZM31.6644 9.33564L9.5 13.125L27.875 31.5L31.6644 9.33564Z" fill="#C0C0C0"/>
</svg>
