<svg width="46" height="36" viewBox="0 0 46 36" fill="none" xmlns="http://www.w3.org/2000/svg">
<path d="M44 16.4996H41V2.99957C40.9999 2.56022 40.9034 2.12625 40.7171 1.72833C40.5309 1.33041 40.2595 0.978247 39.9222 0.696739C39.5849 0.41523 39.1899 0.211244 38.7651 0.0991989C38.3403 -0.0128464 37.896 -0.0302168 37.4637 0.0483163L7.46375 5.50269C6.7725 5.62827 6.14726 5.99248 5.69702 6.53181C5.24678 7.07114 5.0001 7.75138 5 8.45394V16.4996H2C1.60218 16.4996 1.22064 16.6576 0.93934 16.9389C0.658035 17.2202 0.5 17.6017 0.5 17.9996C0.5 18.3974 0.658035 18.7789 0.93934 19.0602C1.22064 19.3415 1.60218 19.4996 2 19.4996H5V27.5452C5.0001 28.2478 5.24678 28.928 5.69702 29.4673C6.14726 30.0067 6.7725 30.3709 7.46375 30.4964L37.4637 35.9508C37.6407 35.9827 37.8202 35.999 38 35.9996C38.7957 35.9996 39.5587 35.6835 40.1213 35.1209C40.6839 34.5583 41 33.7952 41 32.9996V19.4996H44C44.3978 19.4996 44.7794 19.3415 45.0607 19.0602C45.342 18.7789 45.5 18.3974 45.5 17.9996C45.5 17.6017 45.342 17.2202 45.0607 16.9389C44.7794 16.6576 44.3978 16.4996 44 16.4996ZM8 8.45394L38 2.99957V16.4996H8V8.45394ZM38 32.9996L8 27.5452V19.4996H38V32.9996Z" fill="#C0C0C0"/>
</svg>
