<svg width="12" height="12" viewBox="0 0 12 12" fill="none" xmlns="http://www.w3.org/2000/svg"><path fill-rule="evenodd" clip-rule="evenodd" d="M5.15924 9.08527C4.6435 9.08527 4.21329 8.69111 4.16825 8.17735C4.07409 7.10316 4.05026 6.02418 4.09683 4.94731C4.04061 4.94355 3.98441 4.93962 3.9282 4.93552L2.93517 4.86313C2.30047 4.81687 1.94566 4.10915 2.28832 3.5729C3.01912 2.42922 4.3586 1.14919 5.4609 0.357365C5.78345 0.12567 6.21788 0.12567 6.54042 0.357365C7.64272 1.14919 8.98221 2.42922 9.713 3.5729C10.0557 4.10915 9.70086 4.81687 9.06616 4.86313L8.07312 4.93552C8.01692 4.93962 7.96071 4.94355 7.90449 4.94731C7.95107 6.02418 7.92724 7.10316 7.83307 8.17735C7.78804 8.69112 7.35782 9.08527 6.84209 9.08527H5.15924ZM5.12164 4.50878C5.04583 5.70026 5.05999 6.89582 5.16401 8.08527H6.83731C6.94134 6.89582 6.95549 5.70026 6.87968 4.50878C6.87119 4.3752 6.9166 4.24379 7.00576 4.14396C7.09492 4.04414 7.22039 3.98422 7.35407 3.97764C7.56963 3.96702 7.7851 3.95386 8.00042 3.93817L8.72162 3.88559C8.08192 2.9434 7.28093 2.12056 6.35485 1.45533L6.00066 1.2009L5.64647 1.45533C4.7204 2.12056 3.9194 2.9434 3.2797 3.8856L4.00091 3.93817C4.21623 3.95386 4.43169 3.96702 4.64725 3.97764C4.78094 3.98422 4.9064 4.04414 4.99556 4.14396C5.08472 4.24379 5.13014 4.3752 5.12164 4.50878Z" fill="#828282"/><path d="M1.83398 9.33376C1.83398 9.05762 1.61013 8.83376 1.33398 8.83376C1.05784 8.83376 0.833984 9.05762 0.833984 9.33376V10.6671C0.833984 11.3114 1.35632 11.8338 2.00065 11.8338H10.0007C10.645 11.8338 11.1673 11.3114 11.1673 10.6671V9.33376C11.1673 9.05762 10.9435 8.83376 10.6673 8.83376C10.3912 8.83376 10.1673 9.05762 10.1673 9.33376V10.6671C10.1673 10.7591 10.0927 10.8338 10.0007 10.8338H2.00065C1.9086 10.8338 1.83398 10.7591 1.83398 10.6671V9.33376Z" fill="#828282"/></svg>