<svg width="14" height="14" viewBox="0 0 14 14" fill="none" xmlns="http://www.w3.org/2000/svg"><path d="M7.57617 0.998092C7.31925 0.555325 6.67985 0.555323 6.42293 0.998092L4.61356 4.1163C4.48664 4.33502 4.26728 4.48428 4.01724 4.52205L0.626361 5.0342C0.0568389 5.12022 -0.142934 5.83929 0.300603 6.20676L2.82666 8.29957C3.06049 8.4933 3.17044 8.79887 3.11364 9.09716L2.45286 12.5673C2.3484 13.1158 2.92426 13.542 3.41836 13.2819L6.6113 11.6006C6.85432 11.4727 7.14478 11.4727 7.3878 11.6006L10.5807 13.2819C11.0748 13.542 11.6507 13.1158 11.5462 12.5673L10.8855 9.09716C10.8287 8.79887 10.9386 8.4933 11.1724 8.29957L13.6985 6.20676C14.142 5.83929 13.9423 5.12022 13.3727 5.0342L9.98187 4.52205C9.73183 4.48428 9.51246 4.33502 9.38554 4.1163L7.57617 0.998092Z" fill="#FECC00"/></svg>